<svg width="16" height="16" viewBox="0 0 16 16" fill="none" xmlns="http://www.w3.org/2000/svg">
<path d="M2.47993 4.02667C2.79326 4.33333 3.28659 4.34667 3.61993 4.06667C3.86659 3.85333 4.07993 3.72667 4.19993 3.78C4.53326 3.91333 4.19993 4.46667 3.99993 4.79333C3.83326 5.07333 2.09326 7.38667 2.09326 9C2.09326 9.85333 2.41326 10.56 2.9866 10.9867C3.4866 11.36 4.1466 11.4733 4.74659 11.2933C5.45993 11.0867 6.0466 10.36 6.7866 9.44667C7.59326 8.45333 8.67326 7.15333 9.5066 7.15333C10.5933 7.15333 10.6066 7.82667 10.6799 8.34667C8.15993 8.77333 7.09326 10.7933 7.09326 11.9267C7.09326 13.06 8.05326 13.9867 9.23326 13.9867C10.3199 13.9867 12.0933 13.1 12.3599 9.92H13.1666C13.6266 9.92 13.9999 9.54667 13.9999 9.08667C13.9999 8.62667 13.6266 8.25333 13.1666 8.25333H12.3533C12.2533 7.15333 11.6266 5.45333 9.66659 5.45333C8.16659 5.45333 6.87993 6.72667 6.37326 7.34667C5.9866 7.83333 4.99993 9 4.8466 9.16C4.67993 9.36 4.39326 9.72 4.1066 9.72C3.80659 9.72 3.6266 9.16667 3.8666 8.44C4.09993 7.71333 4.79993 6.53333 5.09993 6.09333C5.61993 5.33333 5.96659 4.81333 5.96659 3.90667C5.96659 2.46 4.87326 2 4.29326 2C3.5666 2 2.93326 2.42 2.49326 2.81333C2.13993 3.13333 2.13993 3.69333 2.47993 4.02667ZM9.25326 12.3667C9.0466 12.3667 8.75993 12.1933 8.75993 11.8867C8.75993 11.4867 9.24659 10.42 10.6733 10.0467C10.4733 11.84 9.71993 12.3667 9.25326 12.3667Z" fill="#BDBDBD"/>
</svg>
