<svg width="14" height="14" viewBox="0 0 14 14" fill="none" xmlns="http://www.w3.org/2000/svg">
<path d="M6.99992 0.333344C3.31992 0.333344 0.333252 3.32001 0.333252 7.00001C0.333252 10.68 3.31992 13.6667 6.99992 13.6667C10.6799 13.6667 13.6666 10.68 13.6666 7.00001C13.6666 3.32001 10.6799 0.333344 6.99992 0.333344ZM7.66659 11.6667H6.33325V10.3333H7.66659V11.6667ZM9.04659 6.50001L8.44659 7.11334C8.11325 7.45334 7.87325 7.76001 7.75325 8.24001C7.69992 8.45334 7.66659 8.69334 7.66659 9.00001H6.33325V8.66668C6.33325 8.36001 6.38659 8.06668 6.47992 7.79334C6.61325 7.40668 6.83325 7.06001 7.11325 6.78001L7.93992 5.94001C8.24659 5.64668 8.39325 5.20668 8.30659 4.74001C8.21992 4.26001 7.84659 3.85334 7.37992 3.72001C6.63992 3.51334 5.95325 3.93334 5.73325 4.56668C5.65325 4.81334 5.44659 5.00001 5.18659 5.00001H4.98659C4.59992 5.00001 4.33325 4.62668 4.43992 4.25334C4.72659 3.27334 5.55992 2.52668 6.59325 2.36668C7.60659 2.20668 8.57325 2.73334 9.17325 3.56668C9.95992 4.65334 9.72659 5.82001 9.04659 6.50001V6.50001Z" fill="#BDBDBD"/>
</svg>
