<svg width="16" height="16" viewBox="0 0 16 16" fill="none" xmlns="http://www.w3.org/2000/svg">
<path d="M8.00005 14.6667C11.0401 14.6667 13.5534 12.4 13.9467 9.46666C14.0067 9.03999 13.6267 8.65999 13.2001 8.71999C10.2667 9.11332 8.00005 11.6267 8.00005 14.6667ZM3.73339 6.83332C3.73339 7.75332 4.48005 8.49999 5.40005 8.49999C5.75339 8.49999 6.07339 8.39332 6.34672 8.20666L6.33339 8.33332C6.33339 9.25332 7.08005 9.99999 8.00005 9.99999C8.92005 9.99999 9.66672 9.25332 9.66672 8.33332L9.65339 8.20666C9.92005 8.39332 10.2467 8.49999 10.6001 8.49999C11.5201 8.49999 12.2667 7.75332 12.2667 6.83332C12.2667 6.16666 11.8734 5.59999 11.3134 5.33332C11.8734 5.06666 12.2667 4.49999 12.2667 3.83332C12.2667 2.91332 11.5201 2.16666 10.6001 2.16666C10.2467 2.16666 9.92672 2.27332 9.65339 2.45999L9.66672 2.33332C9.66672 1.41332 8.92005 0.666656 8.00005 0.666656C7.08005 0.666656 6.33339 1.41332 6.33339 2.33332L6.34672 2.45999C6.08005 2.27332 5.75339 2.16666 5.40005 2.16666C4.48005 2.16666 3.73339 2.91332 3.73339 3.83332C3.73339 4.49999 4.12672 5.06666 4.68672 5.33332C4.12672 5.59999 3.73339 6.16666 3.73339 6.83332ZM8.00005 3.66666C8.92005 3.66666 9.66672 4.41332 9.66672 5.33332C9.66672 6.25332 8.92005 6.99999 8.00005 6.99999C7.08005 6.99999 6.33339 6.25332 6.33339 5.33332C6.33339 4.41332 7.08005 3.66666 8.00005 3.66666ZM2.05339 9.46666C2.44672 12.4 4.96005 14.6667 8.00005 14.6667C8.00005 11.6267 5.73339 9.11332 2.80005 8.71999C2.37339 8.65999 1.99339 9.03999 2.05339 9.46666Z" fill="#BDBDBD"/>
</svg>
