<svg width="16" height="16" viewBox="0 0 16 16" fill="none" xmlns="http://www.w3.org/2000/svg">
<path d="M7.99992 1.33334C5.41992 1.33334 3.33325 3.42001 3.33325 6.00001C3.33325 9.50001 7.99992 14.6667 7.99992 14.6667C7.99992 14.6667 12.6666 9.50001 12.6666 6.00001C12.6666 3.42001 10.5799 1.33334 7.99992 1.33334ZM4.66659 6.00001C4.66659 4.16001 6.15992 2.66668 7.99992 2.66668C9.83992 2.66668 11.3333 4.16001 11.3333 6.00001C11.3333 7.92001 9.41325 10.7933 7.99992 12.5867C6.61325 10.8067 4.66659 7.90001 4.66659 6.00001Z" fill="#BDBDBD"/>
<path d="M7.99992 7.66668C8.92039 7.66668 9.66659 6.92048 9.66659 6.00001C9.66659 5.07954 8.92039 4.33334 7.99992 4.33334C7.07944 4.33334 6.33325 5.07954 6.33325 6.00001C6.33325 6.92048 7.07944 7.66668 7.99992 7.66668Z" fill="#BDBDBD"/>
</svg>
