<svg width="120" height="22" viewBox="0 0 120 22" fill="none" xmlns="http://www.w3.org/2000/svg">
<path d="M117.579 18.8155L106.844 10.7829L106.519 11.5427L116.983 19.4125L117.579 18.8155Z" fill="black"/>
<path d="M106.194 2.91315H105.38V9.15467H106.194V2.91315Z" fill="black"/>
<path d="M6.81229 10.0773H2.63751V10.8914H6.81229V10.0773Z" fill="black"/>
<path d="M2.14956 2.91315H1.33629V9.20894H2.14956V2.91315Z" fill="black"/>
<path d="M98.3862 19.0326L86.4583 13.8765L86.133 14.6364L98.1694 19.7924L98.3862 19.0326Z" fill="black"/>
<path d="M99.4164 18.6526L91.8259 2.37036L91.1753 2.75028L98.6573 18.8154L99.4164 18.6526Z" fill="black"/>
<path d="M86.133 12.791L90.6873 2.91311L90.0367 2.58746L85.4281 12.4653L86.133 12.791Z" fill="black"/>
<path d="M107.061 10.8914H110.856C114.977 10.8914 117.471 9.15465 117.471 6.11531C117.471 3.13023 114.543 1.28491 109.826 1.28491H106.79V2.09902H109.826C114.109 2.09902 116.658 3.6187 116.658 6.11531C116.658 8.66619 114.543 10.0773 110.856 10.0773H107.061V10.8914Z" fill="black"/>
<path d="M105.814 2.53322C105.326 2.53322 105.001 2.1533 105.001 1.7191C105.001 1.23064 105.326 0.904993 105.814 0.904993C106.302 0.904993 106.627 1.23064 106.627 1.7191C106.627 2.1533 106.248 2.53322 105.814 2.53322ZM105.814 3.34733C106.736 3.34733 107.441 2.64176 107.441 1.7191C107.441 0.796444 106.736 0.0908813 105.814 0.0908813C104.892 0.0908813 104.188 0.796444 104.188 1.7191C104.188 2.64176 104.892 3.34733 105.814 3.34733Z" fill="black"/>
<path d="M118.284 20.715C117.85 20.715 117.471 20.3351 117.471 19.9009C117.471 19.4125 117.796 19.0868 118.284 19.0868C118.772 19.0868 119.097 19.4125 119.097 19.9009C119.097 20.3351 118.772 20.715 118.284 20.715ZM118.284 21.5292C119.206 21.5292 119.911 20.8236 119.911 19.9009C119.911 18.9783 119.206 18.2727 118.284 18.2727C117.362 18.2727 116.658 18.9783 116.658 19.9009C116.658 20.8236 117.362 21.5292 118.284 21.5292Z" fill="black"/>
<path d="M106.194 11.7056H105.38V18.6526H106.194V11.7056Z" fill="black"/>
<path d="M90.9584 2.53322C90.5246 2.53322 90.1451 2.1533 90.1451 1.7191C90.1451 1.23064 90.5246 0.904993 90.9584 0.904993C91.4463 0.904993 91.7716 1.23064 91.7716 1.7191C91.7716 2.1533 91.4463 2.53322 90.9584 2.53322ZM90.9584 3.34733C91.8801 3.34733 92.5849 2.64176 92.5849 1.7191C92.5849 0.796444 91.8801 0.0908813 90.9584 0.0908813C90.0367 0.0908813 89.3318 0.796444 89.3318 1.7191C89.3318 2.64176 90.0367 3.34733 90.9584 3.34733Z" fill="black"/>
<path d="M105.814 20.715C105.326 20.715 105.001 20.3351 105.001 19.9009C105.001 19.4125 105.326 19.0868 105.814 19.0868C106.302 19.0868 106.627 19.4125 106.627 19.9009C106.627 20.3351 106.248 20.715 105.814 20.715ZM105.814 21.5292C106.736 21.5292 107.441 20.8236 107.441 19.9009C107.441 18.9783 106.736 18.2727 105.814 18.2727C104.892 18.2727 104.188 18.9783 104.188 19.9009C104.188 20.8236 104.892 21.5292 105.814 21.5292Z" fill="black"/>
<path d="M99.3622 20.715C98.9284 20.715 98.5489 20.3351 98.5489 19.9009C98.5489 19.4125 98.9284 19.0868 99.3622 19.0868C99.8501 19.0868 100.175 19.4125 100.175 19.9009C100.175 20.3351 99.8501 20.715 99.3622 20.715ZM99.3622 21.5292C100.284 21.5292 100.989 20.8236 100.989 19.9009C100.989 18.9783 100.284 18.2727 99.3622 18.2727C98.4404 18.2727 97.7356 18.9783 97.7356 19.9009C97.7356 20.8236 98.4404 21.5292 99.3622 21.5292Z" fill="black"/>
<path d="M84.398 14.6364L82.5004 18.7069L83.2594 18.9783L85.1028 15.0163L84.398 14.6364Z" fill="black"/>
<path d="M74.1508 18.9782L78.8136 8.88326L78.1087 8.55762L73.3918 18.5983L74.1508 18.9782Z" fill="black"/>
<path d="M82.5546 20.715C82.1209 20.715 81.7413 20.3351 81.7413 19.9009C81.7413 19.4125 82.1209 19.0868 82.5546 19.0868C83.0426 19.0868 83.3679 19.4125 83.3679 19.9009C83.3679 20.3351 83.0426 20.715 82.5546 20.715ZM82.5546 21.5292C83.4763 21.5292 84.1812 20.8236 84.1812 19.9009C84.1812 18.9783 83.4763 18.2727 82.5546 18.2727C81.6329 18.2727 80.9281 18.9783 80.9281 19.9009C80.9281 20.8236 81.6329 21.5292 82.5546 21.5292Z" fill="black"/>
<path d="M72.4159 18.9782L73.1207 18.5983L68.458 8.55762L67.6989 8.88326L72.4159 18.9782Z" fill="black"/>
<path d="M73.2834 20.715C72.7954 20.715 72.4701 20.3351 72.4701 19.9009C72.4701 19.4125 72.7954 19.0868 73.2834 19.0868C73.7713 19.0868 74.0966 19.4125 74.0966 19.9009C74.0966 20.3351 73.7171 20.715 73.2834 20.715ZM73.2834 21.5292C74.2051 21.5292 74.9099 20.8236 74.9099 19.9009C74.9099 18.9783 74.2051 18.2727 73.2834 18.2727C72.3617 18.2727 71.6568 18.9783 71.6568 19.9009C71.6568 20.8236 72.3617 21.5292 73.2834 21.5292Z" fill="black"/>
<path d="M60.8675 8.4491H60.0542V18.6526H60.8675V8.4491Z" fill="black"/>
<path d="M60.4879 20.715C60.0542 20.715 59.6747 20.3351 59.6747 19.9009C59.6747 19.4125 60.0542 19.0868 60.4879 19.0868C60.9759 19.0868 61.3012 19.4125 61.3012 19.9009C61.3012 20.3351 60.9217 20.715 60.4879 20.715ZM60.4879 21.5292C61.4096 21.5292 62.1145 20.8236 62.1145 19.9009C62.1145 18.9783 61.4096 18.2727 60.4879 18.2727C59.5662 18.2727 58.8614 18.9783 58.8614 19.9009C58.8614 20.8236 59.5662 21.5292 60.4879 21.5292Z" fill="black"/>
<path d="M46.8251 21.2578C50.295 21.2578 52.4637 18.7069 53.0059 14.2022C53.4939 12.194 53.3854 5.89824 53.3854 2.85889H52.5722C52.5722 5.95251 52.7348 11.9227 52.3011 13.8223C51.7589 18.1642 50.0239 20.4437 46.8251 20.4437C44.2226 20.4437 41.9997 18.0014 41.5659 14.8535L40.7527 15.0163C41.2948 18.5441 43.8431 21.2578 46.8251 21.2578Z" fill="black"/>
<path d="M52.6264 18.7069H53.4396C53.4396 16.8616 53.3854 14.7449 53.0601 13.388C52.4637 8.82901 50.295 6.3324 46.8793 6.3324C43.8431 6.3324 41.2948 9.10037 40.8069 12.6282H41.6202C42.0539 9.53457 44.2768 7.14651 46.8793 7.14651C50.0239 7.14651 51.8131 9.31747 52.3553 13.8222C52.6264 15.0705 52.6264 16.9158 52.6264 18.7069Z" fill="black"/>
<path d="M53.0059 20.715C52.5722 20.715 52.1926 20.3351 52.1926 19.9009C52.1926 19.4125 52.5722 19.0868 53.0059 19.0868C53.4939 19.0868 53.8192 19.4125 53.8192 19.9009C53.8192 20.3351 53.4939 20.715 53.0059 20.715ZM53.0059 21.5292C53.9276 21.5292 54.6324 20.8236 54.6324 19.9009C54.6324 18.9783 53.9276 18.2727 53.0059 18.2727C52.0842 18.2727 51.3794 18.9783 51.3794 19.9009C51.3794 20.8236 52.0842 21.5292 53.0059 21.5292Z" fill="black"/>
<path d="M41.1322 14.582C40.6984 14.582 40.3189 14.2021 40.3189 13.7679C40.3189 13.2795 40.6984 12.9538 41.1322 12.9538C41.6201 12.9538 41.9454 13.2795 41.9454 13.7679C41.9454 14.2564 41.5659 14.582 41.1322 14.582ZM41.1322 15.3962C42.0539 15.3962 42.7587 14.6906 42.7587 13.7679C42.7587 12.8453 42.0539 12.1397 41.1322 12.1397C40.2105 12.1397 39.5056 12.8453 39.5056 13.7679C39.5056 14.6906 40.2105 15.3962 41.1322 15.3962Z" fill="black"/>
<path d="M30.5597 21.9091C32.9453 21.9091 34.9514 20.7151 34.9514 19.4125C34.9514 18.4898 33.9754 17.6757 32.5658 17.2415L30.3971 19.3039L28.4452 17.2415C27.0898 17.6757 26.1681 18.4898 26.1681 19.3582C26.1681 20.7693 28.1741 21.9091 30.5597 21.9091Z" fill="black"/>
<path d="M19.8788 8.4491H19.0655V18.6526H19.8788V8.4491Z" fill="black"/>
<path d="M19.445 20.715C19.0113 20.715 18.6318 20.3351 18.6318 19.9009C18.6318 19.4125 19.0113 19.0868 19.445 19.0868C19.8788 19.0868 20.2583 19.4125 20.2583 19.9009C20.2583 20.3351 19.933 20.715 19.445 20.715ZM19.445 21.5292C20.3668 21.5292 21.0716 20.8236 21.0716 19.9009C21.0716 18.9783 20.3668 18.2727 19.445 18.2727C18.5233 18.2727 17.8185 18.9783 17.8185 19.9009C17.8185 20.8236 18.5233 21.5292 19.445 21.5292Z" fill="black"/>
<path d="M3.01704 20.2809H6.81229C11.3666 20.2809 13.8064 18.4898 13.8064 15.0163C13.8064 11.8684 11.2039 10.0231 6.81229 10.0231V10.8372C10.9328 10.8372 13.4269 9.10039 13.4269 6.06105C13.4269 3.07597 10.4991 1.23065 5.78215 1.23065H2.80017V2.04476H5.78215C10.0111 2.04476 12.6136 3.56444 12.6136 6.06105C12.6136 8.61193 10.5533 10.0231 6.81229 10.0231V10.8372C10.7702 10.8372 12.9931 12.3568 12.9931 15.0163C12.9931 17.9471 10.9328 19.4667 6.81229 19.4667H3.01704V20.2809Z" fill="black"/>
<path d="M2.14956 11.5427H1.33629V18.6526H2.14956V11.5427Z" fill="black"/>
<path d="M1.71581 2.53322C1.28207 2.53322 0.902547 2.1533 0.902547 1.7191C0.902547 1.23064 1.28207 0.904993 1.71581 0.904993C2.20377 0.904993 2.52908 1.23064 2.52908 1.7191C2.52908 2.1533 2.20377 2.53322 1.71581 2.53322ZM1.71581 3.34733C2.63752 3.34733 3.34235 2.64176 3.34235 1.7191C3.34235 0.796444 2.63752 0.0908813 1.71581 0.0908813C0.794111 0.0908813 0.0892792 0.796444 0.0892792 1.7191C0.0892792 2.64176 0.794111 3.34733 1.71581 3.34733Z" fill="black"/>
<path d="M1.71581 11.3256C1.28207 11.3256 0.902547 10.9457 0.902547 10.5115C0.902547 10.0773 1.28207 9.69741 1.71581 9.69741C2.20377 9.69741 2.52908 10.0773 2.52908 10.5115C2.52908 10.9457 2.20377 11.3256 1.71581 11.3256ZM1.71581 12.1397C2.63752 12.1397 3.34235 11.4342 3.34235 10.5115C3.34235 9.58886 2.63752 8.8833 1.71581 8.8833C0.794111 8.8833 0.0892792 9.58886 0.0892792 10.5115C0.0892792 11.4342 0.794111 12.1397 1.71581 12.1397Z" fill="black"/>
<path d="M1.71581 20.715C1.28207 20.715 0.902547 20.3351 0.902547 19.9009C0.902547 19.4125 1.28207 19.0868 1.71581 19.0868C2.20377 19.0868 2.52908 19.4125 2.52908 19.9009C2.52908 20.3351 2.20377 20.715 1.71581 20.715ZM1.71581 21.5292C2.63752 21.5292 3.34235 20.8236 3.34235 19.9009C3.34235 18.9783 2.63752 18.2727 1.71581 18.2727C0.794111 18.2727 0.0892792 18.9783 0.0892792 19.9009C0.0892792 20.8236 0.794111 21.5292 1.71581 21.5292Z" fill="black"/>
<path d="M19.445 9.04609C20.3668 9.04609 21.0716 8.34053 21.0716 7.41787C21.0716 6.76658 20.6921 6.22384 20.1499 5.95247L19.6619 6.60376C19.9872 6.71231 20.2583 7.03795 20.2583 7.41787C20.2583 7.85206 19.8788 8.23198 19.445 8.23198C19.0113 8.23198 18.6318 7.85206 18.6318 7.41787C18.6318 7.03795 18.8487 6.76658 19.2282 6.60376L18.7944 5.89819C18.198 6.11529 17.8185 6.71231 17.8185 7.41787C17.8185 8.34053 18.5233 9.04609 19.445 9.04609Z" fill="black"/>
<path d="M19.4451 6.06106C19.2282 5.68114 19.0113 5.40977 18.7944 5.08412C18.198 4.32429 17.8185 3.78154 17.8185 2.91316C17.8185 1.93623 18.5234 1.23066 19.4993 1.23066C20.4752 1.23066 21.18 1.93623 21.18 2.91316C21.18 3.78154 20.7463 4.32429 20.2041 5.08412C19.8788 5.46404 19.6619 5.73541 19.4451 6.06106ZM19.4451 7.41791C19.8788 6.76662 20.3668 6.06106 20.7463 5.57259C21.3427 4.81275 21.9391 4.05291 21.9391 2.96743C21.9391 1.55631 20.8547 0.470825 19.4451 0.470825C18.0354 0.470825 16.951 1.55631 16.951 2.96743C16.951 4.10719 17.5474 4.86703 18.1438 5.57259C18.5776 6.06106 19.0113 6.71235 19.4451 7.41791Z" fill="black"/>
<path d="M30.5597 18.9783C29.9091 17.8928 28.9332 17.0244 28.0657 16.156C26.8729 14.7992 25.7885 13.4966 25.7885 11.4342C25.7885 8.82902 27.6319 6.60378 30.6139 6.60378C33.5959 6.60378 35.4393 8.77474 35.4393 11.3799C35.4393 13.4423 34.4092 14.7992 33.1622 16.156C32.1862 17.0787 31.2103 17.9471 30.5597 18.9783ZM30.5597 20.0095C30.885 20.0095 31.0477 19.9009 31.1561 19.6838C31.9152 18.4898 32.9453 17.5129 33.867 16.5359C35.114 15.1248 36.1984 13.8222 36.1984 11.8141C36.1984 8.6662 33.9212 5.78967 30.5597 5.78967C27.1982 5.78967 24.9211 8.28628 24.9211 11.4342C24.9211 13.388 25.9512 15.1248 27.2524 16.4817C28.1741 17.5129 29.2043 18.4898 29.9633 19.6838C30.0717 19.8467 30.2886 20.0095 30.5597 20.0095Z" fill="black"/>
<path d="M19.445 3.78154C19.8942 3.78154 20.2583 3.41705 20.2583 2.96743C20.2583 2.51781 19.8942 2.15332 19.445 2.15332C18.9959 2.15332 18.6318 2.51781 18.6318 2.96743C18.6318 3.41705 18.9959 3.78154 19.445 3.78154Z" fill="black"/>
<path d="M30.5597 13.9308C29.15 13.9308 28.0657 12.8453 28.0657 11.3799C28.0657 9.96874 29.15 8.88326 30.5597 8.88326C31.9694 8.88326 33.1079 9.96874 33.1079 11.3799C33.0537 12.8453 31.9694 13.9308 30.5597 13.9308ZM30.5597 14.7449C32.4031 14.7449 33.9212 13.2252 33.9212 11.3799C33.9212 9.58883 32.4031 8.06915 30.5597 8.06915C28.7705 8.06915 27.2524 9.58883 27.2524 11.3799C27.1982 13.2252 28.7163 14.7449 30.5597 14.7449Z" fill="black"/>
<path d="M60.4879 9.04609C61.4096 9.04609 62.1145 8.34053 62.1145 7.41787C62.1145 6.76658 61.7892 6.22384 61.247 5.95247L60.759 6.60376C61.0843 6.71231 61.3012 7.03795 61.3012 7.41787C61.3012 7.85206 60.9759 8.23198 60.4879 8.23198C60.0542 8.23198 59.6747 7.85206 59.6747 7.41787C59.6747 7.03795 59.9458 6.76658 60.2711 6.60376L59.8373 5.89819C59.2951 6.11529 58.8614 6.71231 58.8614 7.41787C58.8614 8.34053 59.5662 9.04609 60.4879 9.04609Z" fill="black"/>
<path d="M60.4879 6.06106C60.2711 5.68114 60.0542 5.40977 59.8373 5.08412C59.2952 4.32429 58.8614 3.78154 58.8614 2.91316C58.8614 1.93623 59.5662 1.23066 60.5422 1.23066C61.5181 1.23066 62.2229 1.93623 62.2229 2.91316C62.2229 3.78154 61.7892 4.32429 61.247 5.08412C60.9217 5.46404 60.6506 5.73541 60.4879 6.06106ZM60.4879 7.41791C60.9217 6.76662 61.4096 6.06106 61.8434 5.57259C62.3856 4.81275 62.982 4.05291 62.982 2.96743C62.982 1.55631 61.8976 0.470825 60.4879 0.470825C59.0783 0.470825 57.9939 1.55631 57.9939 2.96743C57.9939 4.10719 58.5903 4.86703 59.1325 5.57259C59.5662 6.06106 60.0542 6.71235 60.4879 7.41791Z" fill="black"/>
<path d="M53.0059 2.53322C52.5722 2.53322 52.1926 2.1533 52.1926 1.7191C52.1926 1.23064 52.5722 0.904993 53.0059 0.904993C53.4939 0.904993 53.8192 1.23064 53.8192 1.7191C53.8192 2.1533 53.4939 2.53322 53.0059 2.53322ZM53.0059 3.34733C53.9276 3.34733 54.6324 2.64176 54.6324 1.7191C54.6324 0.796444 53.9276 0.0908813 53.0059 0.0908813C52.0842 0.0908813 51.3794 0.796444 51.3794 1.7191C51.3794 2.64176 52.0842 3.34733 53.0059 3.34733Z" fill="black"/>
<path d="M60.488 3.78154C60.9371 3.78154 61.3012 3.41705 61.3012 2.96743C61.3012 2.51781 60.9371 2.15332 60.488 2.15332C60.0388 2.15332 59.6747 2.51781 59.6747 2.96743C59.6747 3.41705 60.0388 3.78154 60.488 3.78154Z" fill="black"/>
<path d="M85.2113 14.582C84.7233 14.582 84.398 14.2021 84.398 13.7679C84.398 13.2795 84.7233 12.9538 85.2113 12.9538C85.645 12.9538 86.0245 13.2795 86.0245 13.7679C86.0245 14.2564 85.6992 14.582 85.2113 14.582ZM85.2113 15.3962C86.133 15.3962 86.8378 14.6906 86.8378 13.7679C86.8378 12.8453 86.133 12.1397 85.2113 12.1397C84.2896 12.1397 83.5848 12.8453 83.5848 13.7679C83.5848 14.6906 84.2896 15.3962 85.2113 15.3962Z" fill="black"/>
<path d="M79.0305 8.23201C78.5967 8.23201 78.2172 7.85209 78.2172 7.4179C78.2172 6.92943 78.5967 6.60378 79.0305 6.60378C79.5184 6.60378 79.8437 6.92943 79.8437 7.4179C79.8437 7.85209 79.5184 8.23201 79.0305 8.23201ZM79.0305 9.04612C79.9522 9.04612 80.657 8.34056 80.657 7.4179C80.657 6.49524 79.9522 5.78967 79.0305 5.78967C78.1088 5.78967 77.4039 6.49524 77.4039 7.4179C77.4039 8.34056 78.1088 9.04612 79.0305 9.04612Z" fill="black"/>
<path d="M67.4821 8.23201C66.9941 8.23201 66.6688 7.85209 66.6688 7.4179C66.6688 6.92943 66.9941 6.60378 67.4821 6.60378C67.9158 6.60378 68.2953 6.92943 68.2953 7.4179C68.2953 7.85209 67.97 8.23201 67.4821 8.23201ZM67.4821 9.04612C68.4038 9.04612 69.1086 8.34056 69.1086 7.4179C69.1086 6.49524 68.4038 5.78967 67.4821 5.78967C66.5603 5.78967 65.8555 6.49524 65.8555 7.4179C65.8555 8.34056 66.5603 9.04612 67.4821 9.04612Z" fill="black"/>
<path d="M105.814 11.3256C105.326 11.3256 105.001 10.9457 105.001 10.5115C105.001 10.0773 105.326 9.69741 105.814 9.69741C106.302 9.69741 106.627 10.0773 106.627 10.5115C106.627 10.9457 106.248 11.3256 105.814 11.3256ZM105.814 12.1397C106.736 12.1397 107.441 11.4342 107.441 10.5115C107.441 9.58886 106.736 8.8833 105.814 8.8833C104.892 8.8833 104.188 9.58886 104.188 10.5115C104.188 11.4342 104.892 12.1397 105.814 12.1397Z" fill="black"/>
</svg>
