<?xml version="1.0" encoding="utf-8"?>
<!-- Generator: Adobe Illustrator 24.3.0, SVG Export Plug-In . SVG Version: 6.00 Build 0)  -->
<svg version="1.1" id="Calque_1" xmlns="http://www.w3.org/2000/svg" xmlns:xlink="http://www.w3.org/1999/xlink" x="0px" y="0px"
	 viewBox="0 0 1000 180" style="enable-background:new 0 0 1000 180;" xml:space="preserve">
<g>
	<path d="M31.1,40.4c-2.2,0-4-0.7-5.5-2.2c-1.5-1.5-2.2-3.3-2.2-5.5c0-2.2,0.7-4,2.2-5.5c1.5-1.5,3.3-2.2,5.5-2.2
		c2.2,0,4,0.7,5.5,2.2c1.5,1.5,2.2,3.3,2.2,5.5c0,2.2-0.7,4-2.2,5.5C35.1,39.6,33.3,40.4,31.1,40.4z M31.1,154.8
		c-2.2,0-4-0.7-5.5-2.2c-1.5-1.5-2.2-3.3-2.2-5.5c0-2.2,0.7-4,2.2-5.5c1.5-1.5,3.3-2.2,5.5-2.2c2.2,0,4,0.7,5.5,2.2
		c1.5,1.5,2.2,3.3,2.2,5.5c0,2.2-0.7,4-2.2,5.5C35.1,154.1,33.3,154.8,31.1,154.8z M28.7,32.7h4.4v112.2h64.6v4.4h-69V32.7z
		 M97.7,154.8c-2.2,0-4-0.7-5.5-2.2c-1.5-1.5-2.2-3.3-2.2-5.5c0-2.2,0.7-4,2.2-5.5c1.5-1.5,3.3-2.2,5.5-2.2c2.2,0,4,0.7,5.5,2.2
		c1.5,1.5,2.2,3.3,2.2,5.5c0,2.2-0.7,4-2.2,5.5C101.7,154.1,99.9,154.8,97.7,154.8z"/>
	<path d="M130.2,40.4c-2.2,0-4-0.7-5.5-2.2c-1.5-1.5-2.2-3.3-2.2-5.5c0-2.2,0.7-4,2.2-5.5c1.5-1.5,3.3-2.2,5.5-2.2
		c2.2,0,4,0.7,5.5,2.2c1.5,1.5,2.2,3.3,2.2,5.5c0,2.2-0.7,4-2.2,5.5C134.2,39.6,132.4,40.4,130.2,40.4z M130.2,95.7
		c-2.2,0-4-0.7-5.5-2.2c-1.5-1.5-2.2-3.3-2.2-5.5c0-2.2,0.7-4,2.2-5.5c1.5-1.5,3.3-2.2,5.5-2.2c2.2,0,4,0.7,5.5,2.2
		c1.5,1.5,2.2,3.3,2.2,5.5c0,2.2-0.7,4-2.2,5.5C134.2,95,132.4,95.7,130.2,95.7z M130.2,154.8c-2.2,0-4-0.7-5.5-2.2
		c-1.5-1.5-2.2-3.3-2.2-5.5c0-2.2,0.7-4,2.2-5.5c1.5-1.5,3.3-2.2,5.5-2.2c2.2,0,4,0.7,5.5,2.2c1.5,1.5,2.2,3.3,2.2,5.5
		c0,2.2-0.7,4-2.2,5.5C134.2,154.1,132.4,154.8,130.2,154.8z M128,147.2V32.7h4.4v114.5H128z M130.2,149.4v-4.4h31.9
		c13.1,0,22.9-2.3,29.5-7c6.5-4.7,9.8-11.7,9.8-21.2c0-8.4-3.4-14.9-10.2-19.6c-6.8-4.6-16.5-6.9-29.1-6.9h-31.9v-4.4h31.9
		c11.8,0,21-2.2,27.3-6.6c6.4-4.4,9.6-10.6,9.6-18.7c0-7.9-3.9-14.1-11.6-18.7c-7.7-4.6-18.3-6.9-31.8-6.9h-25.5v-4.4h25.5
		c9.7,0,18.1,1.2,25.3,3.7c7.2,2.5,12.7,5.9,16.7,10.4c3.9,4.5,5.9,9.8,5.9,16c0,9.3-3.6,16.6-10.9,21.9c-7.3,5.2-17.4,7.9-30.4,7.9
		h-31.9v-4.4h31.9c13.8,0,24.5,2.7,32.2,8.1c7.7,5.4,11.5,13,11.5,22.8c0,10.7-3.7,18.8-11.2,24.3c-7.5,5.5-18.3,8.3-32.5,8.3H130.2
		z"/>
	<path d="M226.7,154.8c-2.2,0-4-0.7-5.5-2.2c-1.5-1.5-2.2-3.3-2.2-5.5c0-2.2,0.7-4,2.2-5.5c1.5-1.5,3.3-2.2,5.5-2.2
		c2.2,0,4,0.7,5.5,2.2c1.5,1.5,2.2,3.3,2.2,5.5c0,2.2-0.7,4-2.2,5.5C230.7,154.1,228.9,154.8,226.7,154.8z M228.8,148l-4.1-1.7
		l53.1-114.6l1.9-0.2l1.9,0.2l53.1,114.6l-4.1,1.7L279.7,37.8L228.8,148z M243.5,116.4c-2.2,0-4-0.7-5.5-2.2
		c-1.5-1.5-2.2-3.3-2.2-5.5c0-2.2,0.7-4,2.2-5.5c1.5-1.5,3.3-2.2,5.5-2.2c2.2,0,4,0.7,5.5,2.2c1.5,1.5,2.2,3.3,2.2,5.5
		c0,2.2-0.7,4-2.2,5.5C247.5,115.7,245.6,116.4,243.5,116.4z M243.5,110.9v-4.4h71.6v4.4H243.5z M279.7,40.4c-2.2,0-4-0.7-5.5-2.2
		c-1.5-1.5-2.2-3.3-2.2-5.5c0-2.2,0.7-4,2.2-5.5c1.5-1.5,3.3-2.2,5.5-2.2c2.2,0,4,0.7,5.5,2.2c1.5,1.5,2.2,3.3,2.2,5.5
		c0,2.2-0.7,4-2.2,5.5C283.7,39.6,281.9,40.4,279.7,40.4z M314.9,116.4c-2.2,0-4-0.7-5.5-2.2c-1.5-1.5-2.2-3.3-2.2-5.5
		c0-2.2,0.7-4,2.2-5.5c1.5-1.5,3.3-2.2,5.5-2.2c2.2,0,4,0.7,5.5,2.2c1.5,1.5,2.2,3.3,2.2,5.5c0,2.2-0.7,4-2.2,5.5
		C318.9,115.7,317,116.4,314.9,116.4z M332.7,154.8c-2.2,0-4-0.7-5.5-2.2c-1.5-1.5-2.2-3.3-2.2-5.5c0-2.2,0.7-4,2.2-5.5
		c1.5-1.5,3.3-2.2,5.5-2.2c2.2,0,4,0.7,5.5,2.2c1.5,1.5,2.2,3.3,2.2,5.5c0,2.2-0.7,4-2.2,5.5C336.6,154.1,334.8,154.8,332.7,154.8z"
		/>
	<path d="M365.1,40.4c-2.2,0-4-0.7-5.5-2.2c-1.5-1.5-2.2-3.3-2.2-5.5c0-2.2,0.7-4,2.2-5.5c1.5-1.5,3.3-2.2,5.5-2.2
		c2.2,0,4,0.7,5.5,2.2c1.5,1.5,2.2,3.3,2.2,5.5c0,2.2-0.7,4-2.2,5.5C369.1,39.6,367.3,40.4,365.1,40.4z M365.1,95.7
		c-2.2,0-4-0.7-5.5-2.2c-1.5-1.5-2.2-3.3-2.2-5.5c0-2.2,0.7-4,2.2-5.5c1.5-1.5,3.3-2.2,5.5-2.2c2.2,0,4,0.7,5.5,2.2
		c1.5,1.5,2.2,3.3,2.2,5.5c0,2.2-0.7,4-2.2,5.5C369.1,95,367.3,95.7,365.1,95.7z M365.1,154.8c-2.2,0-4-0.7-5.5-2.2
		c-1.5-1.5-2.2-3.3-2.2-5.5c0-2.2,0.7-4,2.2-5.5c1.5-1.5,3.3-2.2,5.5-2.2c2.2,0,4,0.7,5.5,2.2c1.5,1.5,2.2,3.3,2.2,5.5
		c0,2.2-0.7,4-2.2,5.5C369.1,154.1,367.3,154.8,365.1,154.8z M365.1,90.6v-4.8h31.9c11.8,0,21-2.2,27.3-6.6
		c6.4-4.4,9.6-10.6,9.6-18.7c0-8-3.8-14.2-11.4-18.8c-7.6-4.6-18.3-6.8-31.9-6.8h-23.2V88v59.1h-4.4V88V30.5h27.7
		c14.8,0,26.5,2.7,35,8c8.5,5.4,12.8,12.7,12.8,22c0,9.3-3.7,16.6-11,21.9c-7.3,5.2-17.5,7.9-30.3,7.9h-25.5l73.6,55.2l-2.7,3.4
		L365.1,90.6z M443.9,154.8c-2.2,0-4-0.7-5.5-2.2c-1.5-1.5-2.2-3.3-2.2-5.5c0-2.2,0.7-4,2.2-5.5c1.5-1.5,3.3-2.2,5.5-2.2
		c2.2,0,4,0.7,5.5,2.2c1.5,1.5,2.2,3.3,2.2,5.5c0,2.2-0.7,4-2.2,5.5C447.9,154.1,446,154.8,443.9,154.8z"/>
	<path d="M539.5,131.8c2.2,0,4,0.7,5.5,2.2c1.5,1.5,2.2,3.3,2.2,5.5c0,2.2-0.7,4-2.2,5.5c-1.5,1.5-3.3,2.2-5.5,2.2
		c-2.2,0-4-0.7-5.5-2.2c-1.5-1.5-2.2-3.3-2.2-5.5c0-2.2,0.7-4,2.2-5.5C535.6,132.5,537.4,131.8,539.5,131.8z M540.9,137.8
		c3.4,3.1,7.4,5.5,12,7.2c4.6,1.7,9.1,2.6,13.5,2.6c7.2,0,13-1.7,17.6-5c4.6-3.4,6.8-7.7,6.8-13.1c0-5-1.4-9.1-4.3-12.2
		c-2.8-3.1-7.3-5.7-13.5-7.8l-13.7-4.3c-7.3-2.2-12.8-5.2-16.5-9.1c-3.7-3.9-5.6-8.6-5.6-14.1c0-4,1.2-7.6,3.5-10.8
		c2.3-3.2,5.5-5.8,9.4-7.8c3.9-1.9,8.3-2.9,13.1-2.9c9,0,17.2,2.7,24.6,8.2l-2.7,3.4c-6.6-4.8-13.9-7.2-21.9-7.2
		c-6,0-11.1,1.6-15.3,4.9c-4.2,3.2-6.2,7.3-6.2,12.2c0,8.9,6.2,15.3,18.6,19.1l13.7,4.3c7.3,2.3,12.6,5.4,16.1,9.2
		c3.4,3.9,5.1,8.8,5.1,14.9c0,4.3-1.3,8.2-3.8,11.6c-2.5,3.4-6,6.1-10.3,8c-4.4,1.9-9.3,2.9-14.8,2.9c-4.9,0-9.9-1-14.9-2.9
		c-5.1-1.9-9.5-4.6-13.2-7.9L540.9,137.8z M586.5,62.6c2.2,0,4,0.7,5.5,2.2c1.5,1.5,2.2,3.3,2.2,5.5c0,2.2-0.7,4-2.2,5.5
		c-1.5,1.5-3.3,2.2-5.5,2.2c-2.2,0-4-0.7-5.5-2.2c-1.5-1.5-2.2-3.3-2.2-5.5c0-2.2,0.7-4,2.2-5.5C582.5,63.3,584.4,62.6,586.5,62.6z"
		/>
	<path d="M610.4,72.8c-2.2,0-4-0.7-5.5-2.2c-1.5-1.5-2.2-3.3-2.2-5.5c0-2.2,0.7-4,2.2-5.5c1.5-1.5,3.3-2.2,5.5-2.2
		c2.2,0,4,0.7,5.5,2.2c1.5,1.5,2.2,3.3,2.2,5.5c0,2.2-0.7,4-2.2,5.5C614.4,72.1,612.6,72.8,610.4,72.8z M649,62.9v4.4h-38.6v-4.4
		H649z M629.7,49.8c-2.2,0-4-0.7-5.5-2.2c-1.5-1.5-2.2-3.3-2.2-5.5c0-2.2,0.7-4,2.2-5.5c1.5-1.5,3.3-2.2,5.5-2.2
		c2.2,0,4,0.7,5.5,2.2c1.5,1.5,2.2,3.3,2.2,5.5c0,2.2-0.7,4-2.2,5.5C633.7,49,631.9,49.8,629.7,49.8z M629.7,154.8
		c-2.2,0-4-0.7-5.5-2.2c-1.5-1.5-2.2-3.3-2.2-5.5c0-2.2,0.7-4,2.2-5.5c1.5-1.5,3.3-2.2,5.5-2.2c2.2,0,4,0.7,5.5,2.2
		c1.5,1.5,2.2,3.3,2.2,5.5c0,2.2-0.7,4-2.2,5.5C633.7,154.1,631.9,154.8,629.7,154.8z M627.5,42.1h4.4v105.1h-4.4V42.1z M649,72.8
		c-2.2,0-4-0.7-5.5-2.2c-1.5-1.5-2.2-3.3-2.2-5.5c0-2.2,0.7-4,2.2-5.5c1.5-1.5,3.3-2.2,5.5-2.2c2.2,0,4,0.7,5.5,2.2
		c1.5,1.5,2.2,3.3,2.2,5.5c0,2.2-0.7,4-2.2,5.5C653,72.1,651.2,72.8,649,72.8z"/>
	<path d="M678.1,72.8c-2.2,0-4-0.7-5.5-2.2c-1.5-1.5-2.2-3.3-2.2-5.5c0-2.2,0.7-4,2.2-5.5c1.5-1.5,3.3-2.2,5.5-2.2
		c2.2,0,4,0.7,5.5,2.2c1.5,1.5,2.2,3.3,2.2,5.5c0,2.2-0.7,4-2.2,5.5C682.1,72.1,680.2,72.8,678.1,72.8z M736,65.1h4.4V112
		c0,12.9-2.7,22.8-8.1,29.6c-5.4,6.9-13.2,10.3-23.3,10.3c-10.4,0-18.5-3.5-24.3-10.6c-5.9-7.1-8.8-16.9-8.8-29.4V65.1h4.4V112
		c0,11.4,2.5,20.2,7.4,26.3c5,6.2,12,9.2,21.3,9.2c8.9,0,15.6-3,20.2-9c4.6-6,6.8-14.8,6.8-26.6V65.1z M738.2,72.8
		c-2.2,0-4-0.7-5.5-2.2c-1.5-1.5-2.2-3.3-2.2-5.5c0-2.2,0.7-4,2.2-5.5c1.5-1.5,3.3-2.2,5.5-2.2c2.2,0,4,0.7,5.5,2.2
		c1.5,1.5,2.2,3.3,2.2,5.5c0,2.2-0.7,4-2.2,5.5C742.2,72.1,740.4,72.8,738.2,72.8z"/>
	<path d="M769,113.8c-2.2,0-4-0.7-5.5-2.2c-1.5-1.5-2.2-3.3-2.2-5.5c0-2.2,0.7-4,2.2-5.5c1.5-1.5,3.3-2.2,5.5-2.2
		c2.2,0,4,0.7,5.5,2.2c1.5,1.5,2.2,3.3,2.2,5.5c0,2.2-0.7,4-2.2,5.5C773,113.1,771.1,113.8,769,113.8z"/>
	<path d="M842.1,32.7h4.4v32.5c0,7.5-0.2,15.3-0.6,23.5c-0.4,8.1-1,14.5-1.8,19c-2.6,14.6-7.3,25.6-14,33.1
		c-6.7,7.5-15.4,11.2-26,11.2c-7.1,0-13.4-2-19.1-6c-5.7-4-10.2-9.5-13.4-16.4c-3.2-6.9-4.9-14.7-4.9-23.4c0-8.7,1.6-16.5,4.9-23.4
		c3.2-6.9,7.7-12.4,13.4-16.4c5.7-4,12.1-6,19.1-6c10.6,0,19.2,3.7,26,11.2c6.7,7.5,11.4,18.5,14,33.1c0.8,4.6,1.4,10.9,1.8,19
		c0.4,8.1,0.6,15.9,0.6,23.6h-4.4c0-7.5-0.2-15.2-0.6-23.1c-0.4-7.9-1-14.2-1.8-18.7c-4.7-27-16.5-40.5-35.5-40.5
		c-6.3,0-11.9,1.8-17,5.3c-5.1,3.5-9,8.4-11.8,14.7c-2.8,6.3-4.2,13.4-4.2,21.4c0,8,1.4,15.1,4.2,21.4c2.8,6.3,6.7,11.2,11.8,14.7
		c5.1,3.5,10.7,5.3,17,5.3c19,0,30.9-13.5,35.5-40.5c0.8-4.6,1.4-10.8,1.8-18.7c0.4-7.9,0.6-15.6,0.6-23.1V32.7z"/>
	<path d="M844.3,40.4c-2.2,0-4-0.7-5.5-2.2c-1.5-1.5-2.2-3.3-2.2-5.5c0-2.2,0.7-4,2.2-5.5c1.5-1.5,3.3-2.2,5.5-2.2
		c2.2,0,4,0.7,5.5,2.2c1.5,1.5,2.2,3.3,2.2,5.5c0,2.2-0.7,4-2.2,5.5C848.3,39.6,846.5,40.4,844.3,40.4z"/>
	<g>
		<path d="M962.6,121.7l0.1-0.2c7.1-8.3,13.8-16.1,13.8-29.9c0-17.1-14-31.1-31.2-31.1s-31.2,14-31.2,31.1
			c0,13.9,6.7,21.7,13.8,29.9l0.1,0.2c0.6,0.7,1.6,1.7,2.8,3c0.9,0.9,1.9,2,2.9,3.1c-11.5,2.1-19.7,7.6-19.7,13.1
			c0,6.8,12.6,14.1,31.2,14.1s31.2-7.3,31.2-14.1c0-5.5-8.2-10.9-19.7-13.1c1-1.1,2-2.2,2.9-3.1C961,123.4,962,122.4,962.6,121.7z
			 M937.4,131.7c3.6,4,6.1,7.1,7.5,9.4h0.9c1.4-2.3,3.9-5.4,7.5-9.4c12.5,1.6,18.8,6.7,18.8,9.2c0,2.9-9.1,9.7-26.8,9.7
			c-17.7,0-26.8-6.8-26.8-9.7C918.5,138.5,924.8,133.3,937.4,131.7z M918.5,91.6c0-14.7,12-26.7,26.8-26.7c14.8,0,26.8,12,26.8,26.7
			c0,12.2-5.9,19.1-12.8,27l-0.1,0.1c-0.5,0.6-1.4,1.5-2.4,2.6l-0.3,0.3c-3.1,3.3-7.7,8.1-11.3,12.6c-3.5-4.4-8.1-9.3-11.3-12.6
			c-1.2-1.2-2.1-2.2-2.7-2.8l-0.1-0.2C924.4,110.7,918.5,103.8,918.5,91.6z"/>
		<path d="M945.3,107.4c8.8,0,15.9-7.1,15.9-15.8c0-8.7-7.1-15.8-15.9-15.8c-8.6,0-15.9,7.2-15.9,15.8
			C929.4,100.3,936.6,107.4,945.3,107.4z"/>
	</g>
	<g>
		<path d="M896.8,39.6c0-8-6.1-14-14.2-14c-8.1,0-14.2,6-14.2,14c0,6,2.6,10.2,6.4,16.6c0.8,1.4,1.8,2.9,2.7,4.6
			c-3,1.9-4.8,4.9-4.8,8.3c0,4.6,3.2,8.5,7.6,9.5V139c-3.5,1-5.9,4.1-5.9,7.8c0,4.5,3.6,8.1,8.1,8.1c4.5,0,8.1-3.6,8.1-8.1
			c0-3.7-2.4-6.8-5.9-7.8V78.7c4.4-1,7.6-4.9,7.6-9.5c0-3.4-1.7-6.4-4.8-8.3c1-1.7,1.9-3.2,2.7-4.6
			C894.2,49.9,896.8,45.6,896.8,39.6z M872.8,39.6c0-5.6,4.1-9.6,9.8-9.6c5.7,0,9.8,4,9.8,9.6c0,4.7-2.2,8.4-5.8,14.3
			c-1.1,1.9-2.5,4.2-4,6.8c-1.4-2.5-2.7-4.7-3.9-6.7l-0.1-0.1C875,48,872.8,44.4,872.8,39.6z"/>
		<path d="M889,39.6c0-3.5-2.9-6.4-6.4-6.4c-3.5,0-6.4,2.9-6.4,6.4s2.9,6.4,6.4,6.4C886.1,46,889,43.1,889,39.6z"/>
	</g>
	<path d="M844.3,154.8c-2.2,0-4-0.7-5.5-2.2c-1.5-1.5-2.2-3.3-2.2-5.5c0-2.2,0.7-4,2.2-5.5c1.5-1.5,3.3-2.2,5.5-2.2
		c2.2,0,4,0.7,5.5,2.2c1.5,1.5,2.2,3.3,2.2,5.5c0,2.2-0.7,4-2.2,5.5C848.3,154.1,846.5,154.8,844.3,154.8z"/>
</g>
</svg>
