<svg width="16" height="16" viewBox="0 0 16 16" fill="none" xmlns="http://www.w3.org/2000/svg">
<path d="M8.00008 5.33332C6.52675 5.33332 5.33341 6.52666 5.33341 7.99999C5.33341 9.47332 6.52675 10.6667 8.00008 10.6667C9.47341 10.6667 10.6667 9.47332 10.6667 7.99999C10.6667 6.52666 9.47341 5.33332 8.00008 5.33332ZM13.9601 7.33332C13.6534 4.55332 11.4467 2.34666 8.66675 2.03999V1.33332C8.66675 0.966656 8.36675 0.666656 8.00008 0.666656C7.63341 0.666656 7.33341 0.966656 7.33341 1.33332V2.03999C4.55341 2.34666 2.34675 4.55332 2.04008 7.33332H1.33341C0.966748 7.33332 0.666748 7.63332 0.666748 7.99999C0.666748 8.36666 0.966748 8.66666 1.33341 8.66666H2.04008C2.34675 11.4467 4.55341 13.6533 7.33341 13.96V14.6667C7.33341 15.0333 7.63341 15.3333 8.00008 15.3333C8.36675 15.3333 8.66675 15.0333 8.66675 14.6667V13.96C11.4467 13.6533 13.6534 11.4467 13.9601 8.66666H14.6667C15.0334 8.66666 15.3334 8.36666 15.3334 7.99999C15.3334 7.63332 15.0334 7.33332 14.6667 7.33332H13.9601ZM8.00008 12.6667C5.42008 12.6667 3.33341 10.58 3.33341 7.99999C3.33341 5.41999 5.42008 3.33332 8.00008 3.33332C10.5801 3.33332 12.6667 5.41999 12.6667 7.99999C12.6667 10.58 10.5801 12.6667 8.00008 12.6667Z" fill="#BDBDBD"/>
</svg>
