<svg width="16" height="16" viewBox="0 0 16 16" fill="none" xmlns="http://www.w3.org/2000/svg">
<path d="M8.83335 2.00001C5.44001 1.90668 2.66001 4.62668 2.66001 8.00001H1.46668C1.16668 8.00001 1.02001 8.36001 1.23335 8.56668L3.09335 10.4333C3.22668 10.5667 3.43335 10.5667 3.56668 10.4333L5.42668 8.56668C5.64001 8.36001 5.48668 8.00001 5.19335 8.00001H3.99335C3.99335 5.40001 6.11335 3.30001 8.72668 3.33335C11.2067 3.36668 13.2933 5.45335 13.3267 7.93335C13.36 10.54 11.26 12.6667 8.66001 12.6667C7.58668 12.6667 6.59335 12.3 5.80668 11.68C5.54001 11.4733 5.16668 11.4933 4.92668 11.7333C4.64668 12.02 4.66668 12.4867 4.98001 12.7333C5.99335 13.5267 7.27335 14 8.66001 14C12.0267 14 14.7533 11.22 14.66 7.82668C14.5733 4.70001 11.96 2.08668 8.83335 2.00001ZM8.49335 5.33335C8.22001 5.33335 7.99335 5.56001 7.99335 5.83335V8.28668C7.99335 8.52001 8.12001 8.74001 8.32001 8.86001L10.4 10.0933C10.64 10.2333 10.9467 10.1533 11.0867 9.92001C11.2267 9.68001 11.1467 9.37335 10.9133 9.23335L8.99335 8.09335V5.82668C8.99335 5.56001 8.77335 5.33335 8.49335 5.33335Z" fill="#BDBDBD"/>
</svg>
