<svg width="16" height="16" viewBox="0 0 16 16" fill="none" xmlns="http://www.w3.org/2000/svg">
<path d="M8.00008 3.99999C10.5267 3.99999 12.7801 5.41999 13.8801 7.66666C12.7801 9.91332 10.5267 11.3333 8.00008 11.3333C5.47341 11.3333 3.22008 9.91332 2.12008 7.66666C3.22008 5.41999 5.47341 3.99999 8.00008 3.99999ZM8.00008 2.66666C4.66675 2.66666 1.82008 4.73999 0.666748 7.66666C1.82008 10.5933 4.66675 12.6667 8.00008 12.6667C11.3334 12.6667 14.1801 10.5933 15.3334 7.66666C14.1801 4.73999 11.3334 2.66666 8.00008 2.66666ZM8.00008 5.99999C8.92008 5.99999 9.66675 6.74666 9.66675 7.66666C9.66675 8.58666 8.92008 9.33332 8.00008 9.33332C7.08008 9.33332 6.33341 8.58666 6.33341 7.66666C6.33341 6.74666 7.08008 5.99999 8.00008 5.99999ZM8.00008 4.66666C6.34675 4.66666 5.00008 6.01332 5.00008 7.66666C5.00008 9.31999 6.34675 10.6667 8.00008 10.6667C9.65341 10.6667 11.0001 9.31999 11.0001 7.66666C11.0001 6.01332 9.65341 4.66666 8.00008 4.66666Z" fill="#BDBDBD"/>
</svg>
