<svg width="16" height="16" viewBox="0 0 16 16" fill="none" xmlns="http://www.w3.org/2000/svg">
<path d="M8.08392 5.41671L9.37525 4.12537L11.8733 6.62337L10.5819 7.91537L8.08392 5.41671ZM13.8066 3.75337L12.2466 2.19337C12.1217 2.06921 11.9527 1.99951 11.7766 1.99951C11.6005 1.99951 11.4315 2.06921 11.3066 2.19337L10.0866 3.41337L12.5866 5.91337L13.8066 4.66671C13.9228 4.54307 13.9876 4.37975 13.9876 4.21004C13.9876 4.04033 13.9228 3.87701 13.8066 3.75337ZM1.33325 3.33337L5.75325 7.75337L1.99992 11.5V14H4.49992L8.25325 10.2534L11.9999 14L13.3333 12.6667L2.66659 2.00004L1.33325 3.33337Z" fill="#666666"/>
</svg>
