<svg width="16" height="16" viewBox="0 0 16 16" fill="none" xmlns="http://www.w3.org/2000/svg">
<path d="M8.00008 4.33329C9.84008 4.33329 11.3334 5.82662 11.3334 7.66662C11.3334 8.00662 11.2667 8.33329 11.1734 8.63996L13.2134 10.68C14.1401 9.85996 14.8734 8.83329 15.3334 7.65995C14.1801 4.73995 11.3334 2.66662 8.00008 2.66662C7.15341 2.66662 6.34008 2.79995 5.57341 3.04662L7.02008 4.49329C7.33341 4.39995 7.66008 4.33329 8.00008 4.33329ZM1.80675 2.10662C1.54675 2.36662 1.54675 2.78662 1.80675 3.04662L3.12008 4.35995C2.04008 5.21995 1.18008 6.35329 0.666748 7.66662C1.82008 10.5933 4.66675 12.6666 8.00008 12.6666C9.01341 12.6666 9.98008 12.4666 10.8734 12.12L12.6867 13.9333C12.9467 14.1933 13.3667 14.1933 13.6267 13.9333C13.8867 13.6733 13.8867 13.2533 13.6267 12.9933L2.75341 2.10662C2.49341 1.84662 2.06675 1.84662 1.80675 2.10662ZM8.00008 11C6.16008 11 4.66675 9.50662 4.66675 7.66662C4.66675 7.15329 4.78675 6.66662 4.99341 6.23995L6.04008 7.28662C6.02008 7.40662 6.00008 7.53329 6.00008 7.66662C6.00008 8.77329 6.89341 9.66662 8.00008 9.66662C8.13341 9.66662 8.25341 9.64662 8.38008 9.61996L9.42675 10.6666C8.99341 10.88 8.51341 11 8.00008 11ZM9.98008 7.44662C9.88008 6.51329 9.14675 5.78662 8.22008 5.68662L9.98008 7.44662Z" fill="#666666"/>
</svg>
