<svg width="24" height="24" viewBox="0 0 24 24" fill="none" xmlns="http://www.w3.org/2000/svg">
<path d="M22.92 9.78C22.92 9.45 22.77 9.12 22.5 8.88C22.2 8.61 21.78 8.46 21.39 8.49C21.03 8.49 20.7 8.64 20.46 8.91C20.25 9.15 20.13 9.42 20.1 9.72L18.66 9.84C18.39 8.76 17.85 7.8 17.13 6.99C17.22 6.96 17.31 6.96 17.4 6.93C18.51 6.63 19.44 6.36 20.16 5.43C21.09 4.26 20.79 2.76 19.65 1.89C18.45 1.05 16.92 1.2 16.05 2.43C15.33 3.36 15.36 4.32 15.39 5.49C15.39 5.55 15.39 5.61 15.39 5.7C14.43 5.16 13.29 4.83 12.12 4.83H11.82C10.68 4.89 9.63001 5.22 8.70001 5.76L7.71001 3.81C7.95001 3.63 8.13001 3.36 8.22001 3.06C8.31001 2.7 8.28001 2.34 8.10001 2.04C7.92001 1.68 7.56001 1.41 7.17001 1.29C6.81001 1.2 6.45001 1.23 6.15001 1.41C5.82001 1.56 5.58001 1.83 5.46001 2.19C5.31001 2.58 5.34001 3 5.49001 3.33C5.64001 3.66 5.88001 3.9 6.24001 4.05C6.42001 4.11 6.60001 4.14 6.78001 4.14C6.90001 4.14 7.02001 4.11 7.14001 4.08L8.16001 6.09C6.51001 7.32 5.40001 9.3 5.40001 11.55C5.40001 11.7 5.40001 11.85 5.43001 12C4.65001 11.76 3.90001 11.7 3.06001 11.97C1.62001 12.42 1.05001 13.83 1.53001 15.21C2.01001 16.59 3.39001 17.28 4.77001 16.74C5.58001 16.44 6.09001 15.93 6.54001 15.27C7.74001 17.07 9.81001 18.27 12.12 18.27H12.42C13.14 18.24 13.83 18.09 14.46 17.85L15.24 20.25C15 20.4 14.79 20.61 14.64 20.88C14.49 21.21 14.46 21.6 14.61 21.96C14.73 22.32 15 22.65 15.36 22.83C15.54 22.92 15.75 22.95 15.96 22.95C16.11 22.95 16.29 22.92 16.44 22.86C16.77 22.77 17.07 22.53 17.25 22.2C17.43 21.84 17.49 21.42 17.34 21.06C17.25 20.73 17.04 20.46 16.71 20.25C16.44 20.1 16.14 20.04 15.81 20.07L15.03 17.61C17.28 16.53 18.84 14.22 18.84 11.55C18.84 11.19 18.81 10.83 18.75 10.47L20.13 10.35C20.22 10.65 20.4 10.92 20.67 11.1C20.91 11.28 21.15 11.37 21.42 11.37C21.48 11.37 21.57 11.37 21.63 11.34C22.05 11.31 22.41 11.07 22.65 10.74C22.89 10.47 22.98 10.11 22.92 9.78ZM6.48001 3.48C6.30001 3.42 6.15001 3.27 6.06001 3.09C5.97001 2.88 5.94001 2.61 6.03001 2.4C6.09001 2.19 6.24001 2.04 6.42001 1.98L6.45001 1.95C6.54001 1.89 6.66001 1.86 6.78001 1.86C6.84001 1.86 6.93001 1.86 6.99001 1.89C7.23001 1.95 7.44001 2.13 7.56001 2.34C7.65001 2.49 7.68001 2.7 7.62001 2.91C7.56001 3.15 7.38001 3.36 7.17001 3.45C6.96001 3.57 6.72001 3.57 6.48001 3.48ZM4.32001 15.27C3.81001 15.51 3.21001 15.24 3.03001 14.73C2.82001 14.16 3.15001 13.59 3.66001 13.41C4.17001 13.23 4.77001 13.5 4.95001 14.01C5.13001 14.52 4.86001 15.09 4.32001 15.27ZM16.41 20.76C16.59 20.85 16.71 21 16.77 21.21C16.86 21.45 16.83 21.69 16.71 21.9C16.62 22.08 16.44 22.23 16.26 22.26H16.23C16.05 22.35 15.84 22.32 15.63 22.23C15.42 22.14 15.24 21.93 15.18 21.72V21.69C15.09 21.51 15.12 21.3 15.21 21.09C15.3 20.88 15.51 20.7 15.72 20.64C15.81 20.61 15.9 20.61 15.96 20.61C16.11 20.64 16.26 20.7 16.41 20.76ZM17.25 3.42C17.55 2.91 18.18 2.82 18.63 3.15C19.14 3.54 19.17 4.17 18.84 4.62C18.51 5.07 17.88 5.16 17.43 4.83C16.98 4.5 16.89 3.87 17.25 3.42ZM15.39 6.39C15.39 6.72 15.39 7.08 15.42 7.5C15.81 7.38 16.14 7.29 16.41 7.2C16.68 7.47 16.89 7.74 17.1 8.04H15.09C14.79 7.05 14.34 6.24 13.83 5.67C14.4 5.85 14.91 6.09 15.39 6.39ZM14.49 8.04H12.42V5.46C13.29 5.64 14.04 6.63 14.49 8.04ZM18.24 11.85C18.18 12.78 17.94 13.68 17.52 14.46H15.3C15.48 13.68 15.6 12.78 15.63 11.85H18.24ZM14.67 14.46H12.42V11.85H15.03C15 12.78 14.88 13.68 14.67 14.46ZM6.00001 11.25C6.06001 10.32 6.30001 9.42 6.72001 8.64H8.94001C8.76001 9.42 8.64001 10.32 8.61001 11.25H6.00001ZM9.57001 8.64H11.82V11.25H9.21001C9.24001 10.32 9.36001 9.42 9.57001 8.64ZM11.82 11.85V14.46H9.57001C9.36001 13.68 9.24001 12.78 9.21001 11.85H11.82ZM12.42 11.25V8.64H14.67C14.88 9.42 15 10.32 15.03 11.25H12.42ZM11.82 5.46V8.04H9.75001C10.2 6.63 10.95 5.64 11.82 5.46ZM10.38 5.67C9.84001 6.24 9.42001 7.05 9.12001 8.04H7.11001C7.89001 6.93 9.06001 6.09 10.38 5.67ZM6.00001 11.85H8.61001C8.64001 12.78 8.76001 13.68 8.94001 14.46H7.05001C7.35001 14.01 7.68001 13.53 8.10001 12.84C7.29001 12.63 6.81001 12.45 6.18001 12.24C6.12001 12.21 6.09001 12.21 6.03001 12.18C6.03001 12.09 6.03001 11.97 6.00001 11.85ZM7.11001 15.06H9.12001C9.42001 16.05 9.87001 16.86 10.38 17.43C9.06001 17.01 7.89001 16.17 7.11001 15.06ZM9.75001 15.06H11.82V17.64C10.95 17.46 10.2 16.47 9.75001 15.06ZM12.42 17.64V15.06H14.49C14.04 16.47 13.29 17.46 12.42 17.64ZM13.86 17.43C14.4 16.86 14.82 16.05 15.12 15.06H17.13C16.35 16.17 15.18 17.01 13.86 17.43ZM18.24 11.25H15.63C15.6 10.32 15.48 9.42 15.3 8.64H17.52C17.73 9.06 17.91 9.48 18.03 9.93L16.71 10.05L16.77 10.65L18.15 10.53C18.18 10.77 18.21 11.01 18.24 11.25ZM22.2 10.38C22.05 10.59 21.81 10.71 21.57 10.74H21.54C21.36 10.77 21.18 10.74 21.03 10.62C20.82 10.47 20.7 10.23 20.67 9.99C20.64 9.75 20.73 9.51 20.88 9.33C21.03 9.18 21.18 9.09 21.42 9.09C21.45 9.09 21.48 9.09 21.51 9.09C21.72 9.09 21.93 9.18 22.11 9.33C22.26 9.48 22.35 9.66 22.35 9.84V9.9C22.35 10.05 22.32 10.23 22.2 10.38Z" fill="#F2F2F2"/>
</svg>
