<svg width="17" height="22" viewBox="0 0 17 22" fill="none" xmlns="http://www.w3.org/2000/svg">
<path d="M8.50003 4.28H8.20003C4.63003 4.43 1.78003 7.4 1.78003 11C1.78003 14.72 4.78003 17.72 8.50003 17.72H8.80003C12.37 17.57 15.22 14.6 15.22 11C15.22 7.28 12.22 4.28 8.50003 4.28ZM13.51 7.49H11.5C11.2 6.5 10.75 5.69 10.24 5.12C11.56 5.54 12.73 6.38 13.51 7.49ZM2.38003 11.3H4.99003C5.02003 12.23 5.14003 13.13 5.32003 13.91H3.10003C2.68003 13.13 2.44003 12.23 2.38003 11.3ZM8.20003 10.7H5.59003C5.62003 9.77 5.74003 8.87 5.95003 8.09H8.20003V10.7ZM8.80003 8.09H11.05C11.26 8.87 11.38 9.77 11.41 10.7H8.80003V8.09ZM4.99003 10.7H2.38003C2.44003 9.77 2.68003 8.87 3.10003 8.09H5.32003C5.14003 8.87 5.02003 9.77 4.99003 10.7ZM5.59003 11.3H8.20003V13.91H5.95003C5.74003 13.13 5.62003 12.23 5.59003 11.3ZM8.80003 11.3H11.41C11.38 12.23 11.26 13.13 11.05 13.91H8.80003V11.3ZM12.01 11.3H14.62C14.56 12.23 14.32 13.13 13.9 13.91H11.68C11.86 13.13 11.98 12.23 12.01 11.3ZM12.01 10.7C11.98 9.77 11.86 8.87 11.68 8.09H13.9C14.32 8.87 14.59 9.77 14.62 10.7H12.01ZM10.87 7.49H8.80003V4.91C9.67003 5.09 10.42 6.08 10.87 7.49ZM8.20003 4.91V7.49H6.13003C6.58003 6.08 7.33003 5.09 8.20003 4.91ZM6.76003 5.12C6.25003 5.69 5.80003 6.5 5.50003 7.49H3.49003C4.27003 6.38 5.44003 5.54 6.76003 5.12ZM3.49003 14.51H5.50003C5.80003 15.5 6.25003 16.31 6.76003 16.88C5.44003 16.46 4.27003 15.62 3.49003 14.51ZM6.13003 14.51H8.20003V17.09C7.33003 16.91 6.58003 15.92 6.13003 14.51ZM8.80003 17.09V14.51H10.87C10.42 15.92 9.67003 16.91 8.80003 17.09ZM10.24 16.88C10.78 16.31 11.2 15.5 11.5 14.51H13.51C12.73 15.62 11.56 16.46 10.24 16.88Z" fill="#F2F2F2"/>
<path d="M12.22 0.199997H2.50001C1.48001 0.199997 0.700012 0.979997 0.700012 2V20C0.700012 21.02 1.48001 21.8 2.50001 21.8H14.5C15.52 21.8 16.3 21.02 16.3 20V4.28L12.22 0.199997ZM12.4 1.22L15.28 4.1H13.6C12.94 4.1 12.4 3.56 12.4 2.9V1.22ZM14.5 21.2H2.50001C1.84001 21.2 1.30001 20.66 1.30001 20V2C1.30001 1.34 1.84001 0.799997 2.50001 0.799997H11.8V2.9C11.8 3.92 12.58 4.7 13.6 4.7H15.7V20C15.7 20.66 15.16 21.2 14.5 21.2Z" fill="#F2F2F2"/>
</svg>
