<svg width="25" height="24" viewBox="0 0 25 24" fill="none" xmlns="http://www.w3.org/2000/svg">
<path d="M19.93 12.98C19.97 12.66 20 12.34 20 12C20 11.66 19.97 11.34 19.93 11.02L22.04 9.37C22.23 9.22 22.28 8.95 22.16 8.73L20.16 5.27C20.07 5.11 19.9 5.02 19.72 5.02C19.66 5.02 19.6 5.03 19.55 5.05L17.06 6.05C16.54 5.65 15.98 5.32 15.37 5.07L14.99 2.42C14.96 2.18 14.75 2 14.5 2H10.5C10.25 2 10.04 2.18 10.01 2.42L9.62996 5.07C9.01996 5.32 8.45996 5.66 7.93996 6.05L5.44996 5.05C5.38996 5.03 5.32996 5.02 5.26996 5.02C5.09996 5.02 4.92996 5.11 4.83996 5.27L2.83996 8.73C2.70996 8.95 2.76996 9.22 2.95996 9.37L5.06996 11.02C5.02996 11.34 4.99996 11.67 4.99996 12C4.99996 12.33 5.02996 12.66 5.06996 12.98L2.95996 14.63C2.76996 14.78 2.71996 15.05 2.83996 15.27L4.83996 18.73C4.92996 18.89 5.09996 18.98 5.27996 18.98C5.33996 18.98 5.39996 18.97 5.44996 18.95L7.93996 17.95C8.45996 18.35 9.01996 18.68 9.62996 18.93L10.01 21.58C10.04 21.82 10.25 22 10.5 22H14.5C14.75 22 14.96 21.82 14.99 21.58L15.37 18.93C15.98 18.68 16.54 18.34 17.06 17.95L19.55 18.95C19.61 18.97 19.67 18.98 19.73 18.98C19.9 18.98 20.07 18.89 20.16 18.73L22.16 15.27C22.28 15.05 22.23 14.78 22.04 14.63L19.93 12.98ZM17.95 11.27C17.99 11.58 18 11.79 18 12C18 12.21 17.98 12.43 17.95 12.73L17.81 13.86L18.7 14.56L19.78 15.4L19.08 16.61L17.81 16.1L16.77 15.68L15.87 16.36C15.44 16.68 15.03 16.92 14.62 17.09L13.56 17.52L13.4 18.65L13.2 20H11.8L11.61 18.65L11.45 17.52L10.39 17.09C9.95996 16.91 9.55996 16.68 9.15996 16.38L8.24996 15.68L7.18996 16.11L5.91996 16.62L5.21996 15.41L6.29996 14.57L7.18996 13.87L7.04996 12.74C7.01996 12.43 6.99996 12.2 6.99996 12C6.99996 11.8 7.01996 11.57 7.04996 11.27L7.18996 10.14L6.29996 9.44L5.21996 8.6L5.91996 7.39L7.18996 7.9L8.22996 8.32L9.12996 7.64C9.55996 7.32 9.96996 7.08 10.38 6.91L11.44 6.48L11.6 5.35L11.8 4H13.19L13.38 5.35L13.54 6.48L14.6 6.91C15.03 7.09 15.43 7.32 15.83 7.62L16.74 8.32L17.8 7.89L19.07 7.38L19.77 8.59L18.7 9.44L17.81 10.14L17.95 11.27ZM12.5 8C10.29 8 8.49996 9.79 8.49996 12C8.49996 14.21 10.29 16 12.5 16C14.71 16 16.5 14.21 16.5 12C16.5 9.79 14.71 8 12.5 8ZM12.5 14C11.4 14 10.5 13.1 10.5 12C10.5 10.9 11.4 10 12.5 10C13.6 10 14.5 10.9 14.5 12C14.5 13.1 13.6 14 12.5 14Z" fill="#F2F2F2"/>
</svg>
