<svg width="24" height="24" viewBox="0 0 24 24" fill="none" xmlns="http://www.w3.org/2000/svg">
<path d="M15.6 2.7L8.40002 4.5L0.900024 2.61V17.64L8.34002 19.5H8.40002L15.6 17.7L23.1 19.56V4.56L15.6 2.7ZM8.70002 5.04L15.3 3.39V17.16L8.70002 18.81V5.04ZM1.50002 3.39L8.10002 5.04V14.43C7.98002 14.43 7.89002 14.43 7.77002 14.43L7.74002 15.03C7.80002 15.03 7.89002 15.03 7.95002 15.03C8.01002 15.03 8.04002 15.03 8.10002 15.03V18.81L1.50002 17.16V3.39ZM22.5 18.81L15.9 17.16V12.75C15.96 12.75 16.02 12.75 16.08 12.78L16.17 12.18C16.08 12.18 15.99 12.15 15.9 12.15V3.39L22.5 5.04V18.81Z" fill="#F2F2F2"/>
<path d="M6.51001 14.79C6.72001 14.85 6.93001 14.91 7.11001 14.94L7.23001 14.34C7.05001 14.31 6.87001 14.25 6.69001 14.19L6.51001 14.79Z" fill="#F2F2F2"/>
<path d="M13.11 12.36L13.29 12.93C13.47 12.87 13.65 12.84 13.83 12.78L13.71 12.18C13.53 12.24 13.32 12.3 13.11 12.36Z" fill="#F2F2F2"/>
<path d="M10.98 13.47L11.28 13.98C11.46 13.89 11.61 13.77 11.79 13.68L11.49 13.17C11.31 13.26 11.13 13.38 10.98 13.47Z" fill="#F2F2F2"/>
<path d="M12.39 12.66C12.51 12.51 12.63 12.36 12.72 12.24C13.14 11.7 13.5 11.22 13.5 10.53C13.5 9.66 12.87 9.03 12 9.03C11.13 9.03 10.5 9.66 10.5 10.53C10.5 11.22 10.86 11.7 11.28 12.24C11.49 12.48 11.73 12.81 12 13.2C12.03 13.17 12.06 13.11 12.09 13.08L12.27 13.41C12.42 13.32 12.6 13.23 12.78 13.17L12.54 12.63C12.48 12.6 12.42 12.63 12.39 12.66ZM11.4 10.56C11.4 10.23 11.67 9.96 12 9.96C12.33 9.96 12.6 10.23 12.6 10.56C12.6 10.89 12.33 11.16 12 11.16C11.67 11.16 11.4 10.92 11.4 10.56Z" fill="#F2F2F2"/>
<path d="M8.88 14.34L9 14.94C9.18 14.91 9.39001 14.85 9.60001 14.76L9.42 14.19C9.24 14.25 9.06 14.28 8.88 14.34Z" fill="#F2F2F2"/>
<path d="M9.93005 13.98L10.1701 14.52C10.3501 14.43 10.5301 14.37 10.7101 14.25L10.4401 13.71C10.2901 13.83 10.1101 13.92 9.93005 13.98Z" fill="#F2F2F2"/>
<path d="M17.37 12.42C17.19 12.36 16.98 12.3 16.77 12.27L16.65 12.87C16.83 12.9 17.04 12.96 17.19 13.02L17.37 12.42Z" fill="#F2F2F2"/>
<path d="M5.37 14.28C5.55 14.4 5.73 14.49 5.91 14.58L6.18 14.04C6.03 13.95 5.85 13.86 5.7 13.77L5.37 14.28Z" fill="#F2F2F2"/>
<path d="M14.94 12.09C14.73 12.09 14.52 12.09 14.31 12.12L14.37 12.72C14.55 12.69 14.73 12.69 14.94 12.69V12.09Z" fill="#F2F2F2"/>
<path d="M18.51 12.84C18.33 12.78 18.15 12.69 17.94 12.63L17.73 13.2C17.94 13.26 18.12 13.35 18.27 13.41L18.51 12.84Z" fill="#F2F2F2"/>
<path d="M5.10004 13.2V12.72V12.24V11.76V11.28V10.8V10.77C5.61004 10.65 6.00004 10.17 6.00004 9.6C6.00004 8.94 5.46004 8.4 4.80004 8.4C4.14004 8.4 3.60004 8.94 3.60004 9.6C3.60004 10.17 3.99004 10.62 4.50004 10.77V10.8V11.28V11.76V12.24V12.72V13.2V13.5V13.65L4.62004 13.74C4.71004 13.8 4.80004 13.86 4.86004 13.92L5.22004 13.44C5.19004 13.41 5.13004 13.38 5.10004 13.35V13.2ZM4.20004 9.6C4.20004 9.27 4.47004 9 4.80004 9C5.13004 9 5.40004 9.27 5.40004 9.6C5.40004 9.93 5.13004 10.2 4.80004 10.2C4.47004 10.2 4.20004 9.93 4.20004 9.6Z" fill="#F2F2F2"/>
<path d="M18.9 10.77V10.8V11.28V11.76V12.24V12.72V13.2V13.44L18.81 13.65C18.96 13.74 19.05 13.77 19.05 13.77L19.5 14.04V13.5V13.2V12.72V12.24V11.76V11.28V10.8V10.77C20.01 10.65 20.4 10.17 20.4 9.6C20.4 8.94 19.86 8.4 19.2 8.4C18.54 8.4 18 8.94 18 9.6C18 10.17 18.39 10.62 18.9 10.77ZM19.2 9C19.53 9 19.8 9.27 19.8 9.6C19.8 9.93 19.53 10.2 19.2 10.2C18.87 10.2 18.6 9.93 18.6 9.6C18.6 9.27 18.87 9 19.2 9Z" fill="#F2F2F2"/>
</svg>
