<svg width="20" height="20" viewBox="0 0 20 20" fill="none" xmlns="http://www.w3.org/2000/svg">
<path d="M10.1051 6.77088L11.7192 5.15672L14.8417 8.27922L13.2276 9.89422L10.1051 6.77088ZM17.2584 4.69172L15.3084 2.74172C15.1523 2.58651 14.9411 2.49939 14.7209 2.49939C14.5008 2.49939 14.2895 2.58651 14.1334 2.74172L12.6084 4.26672L15.7334 7.39172L17.2584 5.83338C17.4037 5.67883 17.4846 5.47468 17.4846 5.26255C17.4846 5.05042 17.4037 4.84627 17.2584 4.69172V4.69172ZM1.66675 4.16672L7.19175 9.69172L2.50008 14.375V17.5001H5.62508L10.3167 12.8167L15.0001 17.5001L16.6667 15.8334L3.33341 2.50005L1.66675 4.16672Z" fill="#323232"/>
</svg>
