<svg width="20" height="20" viewBox="0 0 20 20" fill="none" xmlns="http://www.w3.org/2000/svg">
<path d="M11.6667 3.33329V7.49996C11.6667 8.43329 11.9751 9.29996 12.5001 9.99996H7.50008C8.04175 9.28329 8.33342 8.41663 8.33342 7.49996V3.33329H11.6667ZM14.1667 1.66663H5.83341C5.37508 1.66663 5.00008 2.04163 5.00008 2.49996C5.00008 2.95829 5.37508 3.33329 5.83341 3.33329H6.66675V7.49996C6.66675 8.88329 5.55008 9.99996 4.16675 9.99996V11.6666H9.14175V17.5L9.97508 18.3333L10.8084 17.5V11.6666H15.8334V9.99996C14.4501 9.99996 13.3334 8.88329 13.3334 7.49996V3.33329H14.1667C14.6251 3.33329 15.0001 2.95829 15.0001 2.49996C15.0001 2.04163 14.6251 1.66663 14.1667 1.66663Z" fill="#323232"/>
</svg>
