<svg width="20" height="20" viewBox="0 0 20 20" fill="none" xmlns="http://www.w3.org/2000/svg">
<path d="M16.3749 7.53333L12.3416 7.18333L10.7666 3.475C10.4833 2.8 9.51661 2.8 9.23327 3.475L7.65827 7.19167L3.63327 7.53333C2.89994 7.59167 2.59994 8.50833 3.15827 8.99167L6.21661 11.6417L5.29994 15.575C5.13327 16.2917 5.90827 16.8583 6.54161 16.475L9.99994 14.3917L13.4583 16.4833C14.0916 16.8667 14.8666 16.3 14.6999 15.5833L13.7833 11.6417L16.8416 8.99167C17.3999 8.50833 17.1083 7.59167 16.3749 7.53333V7.53333ZM9.99994 12.8333L6.8666 14.725L7.69994 11.1583L4.93327 8.75833L8.58327 8.44167L9.99994 5.08333L11.4249 8.45L15.0749 8.76667L12.3083 11.1667L13.1416 14.7333L9.99994 12.8333Z" fill="#323232"/>
</svg>
