<svg width="20" height="20" viewBox="0 0 20 20" fill="none" xmlns="http://www.w3.org/2000/svg">
<path d="M15.2084 6.33329L10.6251 3.68329C10.2417 3.45829 9.75842 3.45829 9.37508 3.68329L4.79175 6.33329C4.40841 6.55829 4.16675 6.96663 4.16675 7.41663V12.7083C4.16675 13.1583 4.40841 13.5666 4.79175 13.7916L9.37508 16.4416C9.75842 16.6666 10.2417 16.6666 10.6251 16.4416L15.2084 13.7916C15.5917 13.5666 15.8334 13.1583 15.8334 12.7083V7.41663C15.8334 6.96663 15.5917 6.55829 15.2084 6.33329V6.33329ZM5.83341 12.4666V8.61663L9.16675 10.55V14.3916L5.83341 12.4666V12.4666ZM10.0001 9.10829L6.66675 7.17496L10.0001 5.24996L13.3334 7.17496L10.0001 9.10829ZM10.8334 14.3916V10.55L14.1667 8.61663V12.4666L10.8334 14.3916ZM5.83341 1.66663H2.91675C2.22508 1.66663 1.66675 2.22496 1.66675 2.91663V5.83329H3.33341V3.33329H5.83341V1.66663ZM14.1667 1.66663H17.0834C17.7751 1.66663 18.3334 2.22496 18.3334 2.91663V5.83329H16.6667V3.33329H14.1667V1.66663ZM5.83341 18.3333H2.91675C2.22508 18.3333 1.66675 17.775 1.66675 17.0833V14.1666H3.33341V16.6666H5.83341V18.3333ZM14.1667 18.3333H17.0834C17.7751 18.3333 18.3334 17.775 18.3334 17.0833V14.1666H16.6667V16.6666H14.1667V18.3333Z" fill="#323232"/>
</svg>
