<svg width="20" height="20" viewBox="0 0 20 20" fill="none" xmlns="http://www.w3.org/2000/svg">
<path d="M9.99992 5.41661C12.2999 5.41661 14.1666 7.28328 14.1666 9.58328C14.1666 10.0083 14.0833 10.4166 13.9666 10.7999L16.5166 13.3499C17.6749 12.3249 18.5916 11.0416 19.1666 9.57494C17.7249 5.92494 14.1666 3.33328 9.99992 3.33328C8.94158 3.33328 7.92492 3.49994 6.96658 3.80828L8.77492 5.61661C9.16658 5.49994 9.57492 5.41661 9.99992 5.41661ZM2.25825 2.63328C1.93325 2.95828 1.93325 3.48328 2.25825 3.80828L3.89992 5.44994C2.54992 6.52494 1.47492 7.94161 0.833252 9.58328C2.27492 13.2416 5.83325 15.8333 9.99992 15.8333C11.2666 15.8333 12.4749 15.5833 13.5916 15.1499L15.8583 17.4166C16.1833 17.7416 16.7083 17.7416 17.0333 17.4166C17.3583 17.0916 17.3583 16.5666 17.0333 16.2416L3.44159 2.63328C3.11659 2.30828 2.58325 2.30828 2.25825 2.63328ZM9.99992 13.7499C7.69992 13.7499 5.83325 11.8833 5.83325 9.58328C5.83325 8.94161 5.98325 8.33328 6.24158 7.79994L7.54992 9.10828C7.52492 9.25828 7.49992 9.41661 7.49992 9.58328C7.49992 10.9666 8.61658 12.0833 9.99992 12.0833C10.1666 12.0833 10.3166 12.0583 10.4749 12.0249L11.7833 13.3333C11.2416 13.5999 10.6416 13.7499 9.99992 13.7499ZM12.4749 9.30828C12.3499 8.14161 11.4333 7.23328 10.2749 7.10828L12.4749 9.30828Z" fill="#323232"/>
</svg>
