<svg width="81" height="81" viewBox="0 0 81 81" fill="none" xmlns="http://www.w3.org/2000/svg">
<path d="M22.5 49.7H59.3" stroke="black" stroke-width="2" stroke-miterlimit="10"/>
<path d="M22.5 28.3H59.3" stroke="black" stroke-width="2" stroke-miterlimit="10"/>
<path d="M19.5 39H62.3" stroke="black" stroke-width="2" stroke-miterlimit="10"/>
<path d="M40.9 17.6C29.1 17.6 19.5 27.2 19.5 39C19.5 50.8 29.1 60.4 40.9 60.4C40.9 60.4 40.9 50.8 40.9 39C40.9 27.2 40.9 17.6 40.9 17.6ZM40.9 17.6C46.9 17.6 51.6 27.2 51.6 39C51.6 50.8 46.9 60.4 40.9 60.4C34.9 60.4 30.2 50.8 30.2 39C30.2 27.2 34.9 17.6 40.9 17.6ZM40.9 17.6C52.6 17.6 62.3 27.2 62.3 39C62.3 50.8 52.7 60.4 40.9 60.4" stroke="black" stroke-width="2" stroke-miterlimit="10"/>
<path d="M27.5 43.3C26.1 45.7 24.9 47.3 23.9 48.9C21.9 52.2 20.1 54.9 16.4 56.3C11.8 58.1 7.20002 55.8 5.60002 51.2C4.00002 46.6 5.90002 41.9 10.7 40.4C14.4 39.1 17.5 40 21.1 41.3C23.2 42 24.8 42.6 27.5 43.3ZM17 47.2C16.4 45.5 14.4 44.6 12.7 45.2C11 45.8 9.90002 47.7 10.6 49.6C11.2 51.3 13.2 52.2 14.9 51.4C16.7 50.8 17.6 48.9 17 47.2Z" fill="black"/>
<path d="M56.3 35L68.4 33.9" stroke="black" stroke-width="2" stroke-miterlimit="10"/>
<path d="M68.4 33.9C68.6 36 70.5 37.7 72.5 37.3C74.6 37.1 76.3 35.2 75.9 33.2C75.9 31.2 73.9 29.6 71.8 29.8C69.8 29.8 68.2 31.8 68.4 33.9Z" stroke="black" stroke-width="2" stroke-miterlimit="10"/>
<path d="M51.9 25.5C51.7 22.7 51.9 20.8 51.8 18.8C51.7 14.9 51.6 11.7 54 8.6C56.9 4.5 62 4 65.8 6.9C69.6 9.8 70.6 14.8 67.5 18.7C65.1 21.8 62 22.7 58.3 23.7C56.3 24.2 54.6 24.7 51.9 25.5ZM58.6 16.6C60.1 17.7 62.2 17.4 63.3 15.9C64.4 14.4 64.3 12.3 62.6 11C61.1 9.9 59 10.2 58 11.9C56.8 13.4 57.1 15.5 58.6 16.6Z" fill="black"/>
<path d="M29.4 21.8L24.9 12.9" stroke="black" stroke-width="2" stroke-miterlimit="10"/>
<path d="M24.9 12.9C26.8 11.9 27.6 9.5 26.6 7.8C25.6 5.9 23.2 5.1 21.5 6.1C19.7 6.9 18.9 9.3 19.8 11.2C20.6 13.1 23 13.8 24.9 12.9Z" stroke="black" stroke-width="2" stroke-miterlimit="10"/>
<path d="M48.8 57L52.5 68.5" stroke="black" stroke-width="2" stroke-miterlimit="10"/>
<path d="M52.5 68.5C50.5 69.1 49.3 71.4 50.1 73.3C50.7 75.3 53 76.5 54.9 75.7C56.8 75.2 58 73 57.3 70.9C56.8 69 54.5 67.9 52.5 68.5Z" stroke="black" stroke-width="2" stroke-miterlimit="10"/>
</svg>
