<svg width="81" height="81" viewBox="0 0 81 81" fill="none" xmlns="http://www.w3.org/2000/svg">
<path d="M50.5 62H30.5" stroke="black" stroke-width="2" stroke-miterlimit="10"/>
<path d="M31.5 66H49.5" stroke="black" stroke-width="2" stroke-miterlimit="10"/>
<path d="M48.5 70H32.5" stroke="black" stroke-width="2" stroke-miterlimit="10"/>
<path d="M29.6 28.3L32.6 31.8L37.3 24.3L40 32.9L48.2 25.4L51.4 29.8" stroke="black" stroke-width="2" stroke-miterlimit="10"/>
<path d="M60.5 30.5C60.5 19.1 51 9.9 39.4 10.5C29.1 11.1 20.7 19.7 20.5 30.1C20.4 35.1 22.1 39.6 25 43.2C28.5 47.4 30.5 52.5 30.5 58H50.5V57.1C50.5 52.1 52.5 47.3 55.7 43.4C58.7 39.9 60.5 35.4 60.5 30.5Z" stroke="black" stroke-width="2" stroke-miterlimit="10"/>
</svg>
