<svg width="81" height="81" viewBox="0 0 81 81" fill="none" xmlns="http://www.w3.org/2000/svg">
<path d="M60 44.8L65.1 47.8L59.1 58.2L54 55.2C51.9 57.2 49.3 58.7 46.5 59.6V65.5H34.5V59.6C31.7 58.7 29.1 57.2 27 55.2L21.9 58.2L15.9 47.8L21 44.8C20.7 43.4 20.5 42 20.5 40.5C20.5 39 20.7 37.6 21 36.2L15.9 33.2L21.9 22.8L27 25.8C29.1 23.8 31.7 22.3 34.5 21.4V15.5H46.5V21.4C49.3 22.3 51.9 23.8 54 25.8L59.1 22.8L65.1 33.2L60 36.2C60.3 37.6 60.5 39 60.5 40.5C60.5 42 60.3 43.4 60 44.8ZM40.5 30.5C35 30.5 30.5 35 30.5 40.5C30.5 46 35 50.5 40.5 50.5C46 50.5 50.5 46 50.5 40.5C50.5 35 46 30.5 40.5 30.5Z" stroke="black" stroke-width="2" stroke-miterlimit="10"/>
</svg>
