<svg width="20" height="20" viewBox="0 0 20 20" fill="none" xmlns="http://www.w3.org/2000/svg">
<path d="M9.33301 13.958H10.667V10.667H13.958V9.33301H10.667V6.04201H9.33301V9.33301H6.04201V10.667H9.33301V13.958ZM10 17.917C8.90267 17.917 7.87134 17.7087 6.90601 17.292C5.94067 16.8753 5.10401 16.3127 4.39601 15.604C3.68734 14.896 3.12467 14.0593 2.70801 13.094C2.29134 12.1287 2.08301 11.0973 2.08301 10C2.08301 8.90267 2.29134 7.87134 2.70801 6.90601C3.12467 5.94067 3.68734 5.10401 4.39601 4.39601C5.10401 3.68734 5.94067 3.12467 6.90601 2.70801C7.87134 2.29134 8.90267 2.08301 10 2.08301C11.0973 2.08301 12.1287 2.29134 13.094 2.70801C14.0593 3.12467 14.896 3.68734 15.604 4.39601C16.3127 5.10401 16.8753 5.94067 17.292 6.90601C17.7087 7.87134 17.917 8.90267 17.917 10C17.917 11.0973 17.7087 12.1287 17.292 13.094C16.8753 14.0593 16.3127 14.896 15.604 15.604C14.896 16.3127 14.0593 16.8753 13.094 17.292C12.1287 17.7087 11.0973 17.917 10 17.917ZM10 16.583C11.8193 16.583 13.3713 15.9407 14.656 14.656C15.9407 13.3713 16.583 11.8193 16.583 10C16.583 8.18067 15.9407 6.62867 14.656 5.34401C13.3713 4.05934 11.8193 3.41701 10 3.41701C8.18067 3.41701 6.62867 4.05934 5.34401 5.34401C4.05934 6.62867 3.41701 8.18067 3.41701 10C3.41701 11.8193 4.05934 13.3713 5.34401 14.656C6.62867 15.9407 8.18067 16.583 10 16.583Z" fill="white"/>
</svg>
