<svg width="20" height="20" viewBox="0 0 20 20" fill="none" xmlns="http://www.w3.org/2000/svg">
<path d="M9.45799 16.583V9.25L7.37499 11.333L6.60399 10.562L9.99999 7.167L13.396 10.562L12.625 11.333L10.542 9.25V16.583H9.45799ZM4.41699 6.854V5.604C4.41699 5.22933 4.54533 4.91333 4.80199 4.656C5.05933 4.39933 5.37533 4.271 5.74999 4.271H14.25C14.6247 4.271 14.9407 4.39933 15.198 4.656C15.4547 4.91333 15.583 5.22933 15.583 5.604V6.854H14.5V5.604C14.5 5.54866 14.4723 5.49333 14.417 5.438C14.361 5.382 14.3053 5.354 14.25 5.354H5.74999C5.69466 5.354 5.63899 5.382 5.58299 5.438C5.52766 5.49333 5.49999 5.54866 5.49999 5.604V6.854H4.41699Z" fill="white"/>
</svg>
