<svg width="20" height="20" viewBox="0 0 20 20" fill="none" xmlns="http://www.w3.org/2000/svg">
<path d="M9.54199 14.708H10.458V10.875L12.125 12.542L12.771 11.896L9.99999 9.125L7.22899 11.896L7.85399 12.562L9.54199 10.875V14.708ZM14.396 17.5H5.60399C5.18733 17.5 4.84366 17.3647 4.57299 17.094C4.30233 16.8233 4.16699 16.4793 4.16699 16.062V3.938C4.16699 3.52067 4.30233 3.17667 4.57299 2.906C4.84366 2.63533 5.18733 2.5 5.60399 2.5H12L15.833 6.333V16.062C15.833 16.4793 15.6977 16.8233 15.427 17.094C15.1563 17.3647 14.8127 17.5 14.396 17.5ZM11.542 6.792V3.417H5.60399C5.46533 3.417 5.34399 3.469 5.23999 3.573C5.13533 3.677 5.08299 3.79867 5.08299 3.938V16.062C5.08299 16.2013 5.13533 16.323 5.23999 16.427C5.34399 16.531 5.46533 16.583 5.60399 16.583H14.396C14.5347 16.583 14.656 16.531 14.76 16.427C14.8647 16.323 14.917 16.2013 14.917 16.062V6.792H11.542ZM5.08299 3.417V6.792V3.417V6.792V16.062C5.08299 16.2013 5.08299 16.323 5.08299 16.427C5.08299 16.531 5.08299 16.583 5.08299 16.583C5.08299 16.583 5.08299 16.531 5.08299 16.427C5.08299 16.323 5.08299 16.2013 5.08299 16.062V3.938C5.08299 3.79867 5.08299 3.677 5.08299 3.573C5.08299 3.469 5.08299 3.417 5.08299 3.417Z" fill="white"/>
</svg>
