<svg width="18" height="18" viewBox="0 0 18 18" fill="none" xmlns="http://www.w3.org/2000/svg">
<path d="M4.77002 14.085L4.95752 15.75L6.17252 14.595L8.25002 8.895C7.74002 8.7675 7.29002 8.5125 6.92252 8.16L4.77002 14.085Z" fill="#323232"/>
<path d="M11.0775 8.16C10.71 8.5125 10.2525 8.7675 9.75 8.895L11.8275 14.595L13.0425 15.75L13.2375 14.085L11.0775 8.16Z" fill="#323232"/>
<path d="M11.205 6.45C11.43 5.28 10.755 4.245 9.75 3.885V3C9.75 2.5875 9.4125 2.25 9 2.25C8.5875 2.25 8.25 2.5875 8.25 3V3.885C7.38 4.2 6.75 5.025 6.75 6C6.75 7.38 7.995 8.475 9.42 8.2125C10.305 8.0475 11.0325 7.335 11.205 6.45ZM9 6.75C8.5875 6.75 8.25 6.4125 8.25 6C8.25 5.5875 8.5875 5.25 9 5.25C9.4125 5.25 9.75 5.5875 9.75 6C9.75 6.4125 9.4125 6.75 9 6.75Z" fill="#323232"/>
</svg>
