<svg width="18" height="18" viewBox="0 0 18 18" fill="none" xmlns="http://www.w3.org/2000/svg">
<path d="M9 3C5.25 3 2.0475 5.3325 0.75 8.625C2.0475 11.9175 5.25 14.25 9 14.25C12.75 14.25 15.9525 11.9175 17.25 8.625C15.9525 5.3325 12.75 3 9 3ZM9 12.375C6.93 12.375 5.25 10.695 5.25 8.625C5.25 6.555 6.93 4.875 9 4.875C11.07 4.875 12.75 6.555 12.75 8.625C12.75 10.695 11.07 12.375 9 12.375ZM9 6.375C7.755 6.375 6.75 7.38 6.75 8.625C6.75 9.87 7.755 10.875 9 10.875C10.245 10.875 11.25 9.87 11.25 8.625C11.25 7.38 10.245 6.375 9 6.375Z" fill="#323232"/>
</svg>
