<svg width="20" height="20" viewBox="0 0 20 20" fill="none" xmlns="http://www.w3.org/2000/svg">
<path d="M5.38853 15.2776C6.14444 14.7002 6.94089 14.2632 7.77787 13.9667C8.61484 13.6701 9.52222 13.5219 10.5 13.5219C11.4778 13.5219 12.3852 13.6701 13.2221 13.9667C14.0591 14.2632 14.8627 14.7002 15.6328 15.2776C16.196 14.6703 16.6518 13.9631 17.0003 13.156C17.348 12.3482 17.5219 11.4628 17.5219 10.5C17.5219 8.54444 16.8406 6.88507 15.4781 5.52187C14.1149 4.15938 12.4556 3.47813 10.5 3.47813C8.54444 3.47813 6.88507 4.15938 5.52187 5.52187C4.15938 6.88507 3.47813 8.54444 3.47813 10.5C3.47813 11.4778 3.65591 12.3667 4.01147 13.1667C4.36702 13.9667 4.82604 14.6703 5.38853 15.2776ZM10.5 10.9672C9.7448 10.9672 9.11156 10.7116 8.60027 10.2003C8.08898 9.68898 7.83333 9.05573 7.83333 8.30053C7.83333 7.54462 8.08898 6.91102 8.60027 6.39973C9.11156 5.88916 9.7448 5.63387 10.5 5.63387C11.2552 5.63387 11.8884 5.88916 12.3997 6.39973C12.911 6.91102 13.1667 7.54462 13.1667 8.30053C13.1667 9.05573 12.911 9.68898 12.3997 10.2003C11.8884 10.7116 11.2552 10.9672 10.5 10.9672ZM10.5 18.5C9.38925 18.5 8.34462 18.2927 7.36613 17.8781C6.38907 17.4628 5.54107 16.8961 4.82213 16.1779C4.10391 15.4589 3.53716 14.6109 3.12187 13.6339C2.70729 12.6554 2.5 11.6108 2.5 10.5C2.5 9.38925 2.70729 8.34462 3.12187 7.36613C3.53716 6.38907 4.10391 5.54107 4.82213 4.82213C5.54107 4.10391 6.38907 3.53716 7.36613 3.12187C8.34462 2.70729 9.38925 2.5 10.5 2.5C11.6108 2.5 12.6554 2.70729 13.6339 3.12187C14.6109 3.53716 15.4589 4.10391 16.1779 4.82213C16.8961 5.54107 17.4628 6.38907 17.8781 7.36613C18.2927 8.34462 18.5 9.38925 18.5 10.5C18.5 11.6108 18.2927 12.6554 17.8781 13.6339C17.4628 14.6109 16.8961 15.4589 16.1779 16.1779C15.4589 16.8961 14.6109 17.4628 13.6339 17.8781C12.6554 18.2927 11.6108 18.5 10.5 18.5ZM10.5224 17.5219C11.2776 17.5219 12.0516 17.3814 12.8445 17.1005C13.6367 16.8189 14.3144 16.441 14.8776 15.9667C14.3293 15.4924 13.6776 15.1293 12.9224 14.8776C12.1665 14.6259 11.359 14.5 10.5 14.5C9.64098 14.5 8.83351 14.6259 8.0776 14.8776C7.3224 15.1293 6.67067 15.4924 6.1224 15.9667C6.6856 16.441 7.36684 16.8189 8.16613 17.1005C8.96684 17.3814 9.75227 17.5219 10.5224 17.5219ZM10.5 9.98907C10.9892 9.98907 11.3928 9.82978 11.7107 9.5112C12.0292 9.19262 12.1885 8.78907 12.1885 8.30053C12.1885 7.81129 12.0292 7.40738 11.7107 7.0888C11.3928 6.77022 10.9892 6.61093 10.5 6.61093C10.0108 6.61093 9.6072 6.77022 9.28933 7.0888C8.97076 7.40738 8.81147 7.81129 8.81147 8.30053C8.81147 8.78907 8.97076 9.19262 9.28933 9.5112C9.6072 9.82978 10.0108 9.98907 10.5 9.98907Z" fill="black"/>
</svg>
