<svg width="21" height="20" viewBox="0 0 21 20" fill="none" xmlns="http://www.w3.org/2000/svg">
<path d="M10.042 15.958L6.04199 13.604C5.81933 13.4793 5.64566 13.3127 5.52099 13.104C5.39566 12.896 5.33299 12.66 5.33299 12.396V7.74999C5.33299 7.48599 5.39566 7.24999 5.52099 7.04199C5.64566 6.83333 5.81933 6.65966 6.04199 6.52099L10.042 4.18799C10.264 4.06266 10.5 3.99999 10.75 3.99999C11 3.99999 11.236 4.06266 11.458 4.18799L15.458 6.52099C15.6807 6.65966 15.8543 6.83333 15.979 7.04199C16.1043 7.24999 16.167 7.48599 16.167 7.74999V12.396C16.167 12.66 16.1043 12.896 15.979 13.104C15.8543 13.3127 15.6807 13.4793 15.458 13.604L11.458 15.958C11.236 16.0833 11 16.146 10.75 16.146C10.5 16.146 10.264 16.0833 10.042 15.958ZM10.292 15V10.312L6.24999 8.02099V12.354C6.24999 12.4513 6.27066 12.5347 6.31199 12.604C6.35399 12.6733 6.41666 12.736 6.49999 12.792L10.292 15ZM11.208 15L15 12.792C15.0833 12.736 15.146 12.6733 15.188 12.604C15.2293 12.5347 15.25 12.4513 15.25 12.354V8.02099L11.208 10.312V15ZM2.41699 5.10399V3.68799C2.41699 3.11799 2.61133 2.63866 2.99999 2.24999C3.38866 1.86133 3.86099 1.66699 4.41699 1.66699H5.85399V2.58299H4.41699C4.11099 2.58299 3.85399 2.68733 3.64599 2.89599C3.43733 3.10399 3.33299 3.36099 3.33299 3.66699V5.10399H2.41699ZM4.43799 18.333C3.86799 18.333 3.38866 18.1317 2.99999 17.729C2.61133 17.3263 2.41699 16.854 2.41699 16.312V14.875H3.33299V16.312C3.33299 16.618 3.43733 16.8787 3.64599 17.094C3.85399 17.3093 4.11099 17.417 4.41699 17.417H5.85399V18.333H4.43799ZM15.646 18.167V17.25H17.083C17.389 17.25 17.646 17.146 17.854 16.938C18.0627 16.7293 18.167 16.4723 18.167 16.167V14.729H19.083V16.167C19.083 16.7223 18.8887 17.1943 18.5 17.583C18.1113 17.9723 17.639 18.167 17.083 18.167H15.646ZM18.167 5.10399V3.66699C18.167 3.36099 18.0627 3.10399 17.854 2.89599C17.646 2.68733 17.389 2.58299 17.083 2.58299H15.646V1.66699H17.062C17.632 1.66699 18.1113 1.86133 18.5 2.24999C18.8887 2.63866 19.083 3.11099 19.083 3.66699V5.10399H18.167ZM10.75 9.52099L14.792 7.20799L11 5.02099C10.9167 4.96566 10.8333 4.93799 10.75 4.93799C10.6667 4.93799 10.5833 4.96566 10.5 5.02099L6.70799 7.20799L10.75 9.52099Z" fill="black"/>
</svg>
