<svg width="21" height="20" viewBox="0 0 21 20" fill="none" xmlns="http://www.w3.org/2000/svg">
<path d="M12.979 16.604L8.04201 14.854L4.72901 16.146C4.50701 16.2293 4.30234 16.2083 4.11501 16.083C3.92701 15.9583 3.83301 15.771 3.83301 15.521V5.354C3.83301 5.18733 3.87134 5.045 3.94801 4.927C4.02401 4.809 4.13167 4.72233 4.27101 4.667L8.04201 3.396L12.979 5.125L16.312 3.833C16.5347 3.76366 16.7327 3.78466 16.906 3.896C17.08 4.00666 17.167 4.17333 17.167 4.396V14.708C17.167 14.8613 17.1217 14.997 17.031 15.115C16.941 15.233 16.8333 15.3197 16.708 15.375L12.979 16.604ZM12.521 15.479V5.875L8.50001 4.479V14.083L12.521 15.479ZM13.438 15.479L16.25 14.521V4.833L13.438 5.875V15.479ZM4.75001 15.146L7.58301 14.083V4.479L4.75001 5.458V15.146ZM13.438 5.875V15.479V5.875ZM7.58301 4.479V14.083V4.479Z" fill="black"/>
</svg>
