<svg width="20" height="20" viewBox="0 0 20 20" fill="none" xmlns="http://www.w3.org/2000/svg">
<path d="M10.021 15.458C9.799 15.458 9.61134 15.3783 9.458 15.219C9.30534 15.059 9.229 14.875 9.229 14.667C9.229 14.4443 9.30534 14.2567 9.458 14.104C9.61134 13.9513 9.799 13.875 10.021 13.875C10.243 13.875 10.4303 13.9513 10.583 14.104C10.7357 14.2567 10.812 14.4373 10.812 14.646C10.812 14.868 10.7357 15.059 10.583 15.219C10.4303 15.3783 10.243 15.458 10.021 15.458ZM10.021 10.792C9.799 10.792 9.61134 10.7153 9.458 10.562C9.30534 10.4093 9.229 10.222 9.229 9.99999C9.229 9.77799 9.30534 9.59066 9.458 9.43799C9.61134 9.28466 9.799 9.20799 10.021 9.20799C10.243 9.20799 10.4303 9.28466 10.583 9.43799C10.7357 9.59066 10.812 9.77799 10.812 9.99999C10.812 10.222 10.7357 10.4093 10.583 10.562C10.4303 10.7153 10.243 10.792 10.021 10.792ZM10.021 6.12499C9.799 6.12499 9.61134 6.04866 9.458 5.89599C9.30534 5.74333 9.229 5.56266 9.229 5.35399C9.229 5.13199 9.30534 4.94099 9.458 4.78099C9.61134 4.62166 9.799 4.54199 10.021 4.54199C10.243 4.54199 10.4303 4.62166 10.583 4.78099C10.7357 4.94099 10.812 5.12499 10.812 5.33299C10.812 5.55566 10.7357 5.74333 10.583 5.89599C10.4303 6.04866 10.243 6.12499 10.021 6.12499Z" fill="black"/>
</svg>
