<svg width="21" height="20" viewBox="0 0 21 20" fill="none" xmlns="http://www.w3.org/2000/svg">
<mask id="mask0_9_184" style="mask-type:alpha" maskUnits="userSpaceOnUse" x="0" y="0" width="21" height="20">
<rect x="0.898315" width="20" height="20" fill="black"/>
</mask>
<g mask="url(#mask0_9_184)">
<path d="M10.2313 11.5H11.5653V9H14.0653V7.667H11.5653V5.167H10.2313V7.667H7.73131V9H10.2313V11.5ZM10.8983 16.375C12.6063 14.861 13.8876 13.42 14.7423 12.052C15.5963 10.684 16.0233 9.5 16.0233 8.5C16.0233 6.91667 15.5303 5.639 14.5443 4.667C13.5583 3.69433 12.343 3.208 10.8983 3.208C9.45364 3.208 8.23831 3.69433 7.25231 4.667C6.26631 5.639 5.77331 6.91667 5.77331 8.5C5.77331 9.5 6.20031 10.684 7.05431 12.052C7.90897 13.42 9.19031 14.861 10.8983 16.375ZM10.8983 18.167C8.73164 16.2503 7.11364 14.4967 6.04431 12.906C4.97497 11.316 4.44031 9.84733 4.44031 8.5C4.44031 6.472 5.08597 4.861 6.37731 3.667C7.66931 2.47233 9.17631 1.875 10.8983 1.875C12.6203 1.875 14.1273 2.47233 15.4193 3.667C16.7106 4.861 17.3563 6.472 17.3563 8.5C17.3563 9.84733 16.8216 11.316 15.7523 12.906C14.683 14.4967 13.065 16.2503 10.8983 18.167Z" fill="black"/>
</g>
</svg>
