<svg width="18" height="18" viewBox="0 0 18 18" fill="none" xmlns="http://www.w3.org/2000/svg">
<path d="M7.725 5.775C7.4325 6.0675 7.4325 6.5325 7.725 6.825L9.15 8.25H2.25C1.8375 8.25 1.5 8.5875 1.5 9C1.5 9.4125 1.8375 9.75 2.25 9.75H9.15L7.725 11.175C7.4325 11.4675 7.4325 11.9325 7.725 12.225C8.0175 12.5175 8.4825 12.5175 8.775 12.225L11.4675 9.5325C11.76 9.24 11.76 8.7675 11.4675 8.475L8.775 5.775C8.4825 5.4825 8.0175 5.4825 7.725 5.775ZM15 14.25H9.75C9.3375 14.25 9 14.5875 9 15C9 15.4125 9.3375 15.75 9.75 15.75H15C15.825 15.75 16.5 15.075 16.5 14.25V3.75C16.5 2.925 15.825 2.25 15 2.25H9.75C9.3375 2.25 9 2.5875 9 3C9 3.4125 9.3375 3.75 9.75 3.75H15V14.25Z" fill="white"/>
</svg>
