<svg width="36" height="36" viewBox="0 0 36 36" fill="none" xmlns="http://www.w3.org/2000/svg">
<path d="M22.5 13.5H13.5V22.5H22.5V13.5ZM19.5 19.5H16.5V16.5H19.5V19.5ZM31.5 16.5V13.5H28.5V10.5C28.5 8.85 27.15 7.5 25.5 7.5H22.5V4.5H19.5V7.5H16.5V4.5H13.5V7.5H10.5C8.85 7.5 7.5 8.85 7.5 10.5V13.5H4.5V16.5H7.5V19.5H4.5V22.5H7.5V25.5C7.5 27.15 8.85 28.5 10.5 28.5H13.5V31.5H16.5V28.5H19.5V31.5H22.5V28.5H25.5C27.15 28.5 28.5 27.15 28.5 25.5V22.5H31.5V19.5H28.5V16.5H31.5ZM25.5 25.5H10.5V10.5H25.5V25.5Z" fill="#323232"/>
</svg>
