<svg width="20" height="20" viewBox="0 0 20 20" fill="none" xmlns="http://www.w3.org/2000/svg">
<path d="M9.542 17.875V16.646C7.84733 16.4793 6.434 15.83 5.302 14.698C4.17 13.566 3.52067 12.1527 3.354 10.458H2.125V9.542H3.354C3.52067 7.84733 4.17 6.434 5.302 5.302C6.434 4.17 7.84733 3.52067 9.542 3.354V2.125H10.458V3.354C12.1527 3.52067 13.566 4.17 14.698 5.302C15.83 6.434 16.4793 7.84733 16.646 9.542H17.875V10.458H16.646C16.4793 12.1527 15.83 13.566 14.698 14.698C13.566 15.83 12.1527 16.4793 10.458 16.646V17.875H9.542ZM10 15.729C11.5973 15.729 12.9513 15.1733 14.062 14.062C15.1733 12.9513 15.729 11.5973 15.729 10C15.729 8.40267 15.1733 7.04867 14.062 5.938C12.9513 4.82667 11.5973 4.271 10 4.271C8.40267 4.271 7.04867 4.82667 5.938 5.938C4.82667 7.04867 4.271 8.40267 4.271 10C4.271 11.5973 4.82667 12.9513 5.938 14.062C7.04867 15.1733 8.40267 15.729 10 15.729ZM10 12.562C9.292 12.562 8.688 12.312 8.188 11.812C7.688 11.312 7.438 10.708 7.438 10C7.438 9.292 7.688 8.688 8.188 8.188C8.688 7.688 9.292 7.438 10 7.438C10.708 7.438 11.312 7.688 11.812 8.188C12.312 8.688 12.562 9.292 12.562 10C12.562 10.708 12.312 11.312 11.812 11.812C11.312 12.312 10.708 12.562 10 12.562ZM10 11.646C10.4447 11.646 10.83 11.4827 11.156 11.156C11.4827 10.83 11.646 10.4447 11.646 10C11.646 9.55533 11.4827 9.17 11.156 8.844C10.83 8.51733 10.4447 8.354 10 8.354C9.55533 8.354 9.17 8.51733 8.844 8.844C8.51733 9.17 8.354 9.55533 8.354 10C8.354 10.4447 8.51733 10.83 8.844 11.156C9.17 11.4827 9.55533 11.646 10 11.646Z" fill="white"/>
</svg>
