<svg width="20" height="20" viewBox="0 0 20 20" fill="none" xmlns="http://www.w3.org/2000/svg">
<g clip-path="url(#clip0_97_4284)">
<path d="M9.542 13.75H10.458V9.167H9.542V13.75ZM10 7.958C10.1387 7.958 10.267 7.90267 10.385 7.792C10.503 7.68067 10.562 7.54867 10.562 7.396C10.562 7.25733 10.503 7.13233 10.385 7.021C10.267 6.90967 10.1387 6.854 10 6.854C9.86133 6.854 9.733 6.90967 9.615 7.021C9.497 7.13233 9.438 7.25733 9.438 7.396C9.438 7.54867 9.497 7.68067 9.615 7.792C9.733 7.90267 9.86133 7.958 10 7.958ZM10 17.5C8.95867 17.5 7.97933 17.3057 7.062 16.917C6.146 16.5277 5.351 15.9963 4.677 15.323C4.00367 14.649 3.47233 13.854 3.083 12.938C2.69433 12.0207 2.5 11.0413 2.5 10C2.5 8.95867 2.69433 7.97933 3.083 7.062C3.47233 6.146 4.00367 5.351 4.677 4.677C5.351 4.00367 6.146 3.47233 7.062 3.083C7.97933 2.69433 8.95867 2.5 10 2.5C11.0413 2.5 12.0207 2.69433 12.938 3.083C13.854 3.47233 14.649 4.00367 15.323 4.677C15.9963 5.351 16.5277 6.146 16.917 7.062C17.3057 7.97933 17.5 8.95867 17.5 10C17.5 11.0413 17.3057 12.0207 16.917 12.938C16.5277 13.854 15.9963 14.649 15.323 15.323C14.649 15.9963 13.854 16.5277 12.938 16.917C12.0207 17.3057 11.0413 17.5 10 17.5ZM10 16.583C11.8193 16.583 13.3713 15.9407 14.656 14.656C15.9407 13.3713 16.583 11.8193 16.583 10C16.583 8.18067 15.9407 6.62867 14.656 5.344C13.3713 4.05933 11.8193 3.417 10 3.417C8.18067 3.417 6.62867 4.05933 5.344 5.344C4.05933 6.62867 3.417 8.18067 3.417 10C3.417 11.8193 4.05933 13.3713 5.344 14.656C6.62867 15.9407 8.18067 16.583 10 16.583Z" fill="white"/>
</g>
<defs>
<clipPath id="clip0_97_4284">
<rect width="20" height="20" fill="white"/>
</clipPath>
</defs>
</svg>
