<svg width="20" height="20" viewBox="0 0 20 20" fill="none" xmlns="http://www.w3.org/2000/svg">
<path d="M16.9 7.09998C16.5 6.19998 16 5.39998 15.3 4.69998C14.7 4.09998 14 3.59998 13.2 3.19998C13 2.79998 12.8 2.39998 12.4 2.09998C11.7 1.39998 10.9 1.09998 9.9 1.09998C8.9 1.09998 8.1 1.39998 7.4 2.09998C7.2 2.39998 7 2.79998 6.8 3.19998C6 3.59998 5.3 4.09998 4.7 4.69998C4 5.39998 3.5 6.19998 3.1 7.09998C2.7 7.99998 2.5 8.99998 2.5 9.99998C2.5 11 2.7 12 3.1 12.9C3.5 13.8 4 14.6 4.7 15.3C5.4 16 6.2 16.5 7.1 16.9C8 17.3 9 17.5 10 17.5C11 17.5 12 17.3 12.9 16.9C13.8 16.5 14.6 16 15.3 15.3C16 14.6 16.5 13.8 16.9 12.9C17.3 12 17.5 11 17.5 9.99998C17.5 8.99998 17.3 7.99998 16.9 7.09998ZM13.4 4.69998C13.4 4.59998 13.4 4.49998 13.4 4.39998C13.6 4.49998 13.8 4.59998 14 4.79998C14.8 5.39998 15.5 6.19998 16 7.29998H12.9C12.9 7.19998 12.8 6.99998 12.8 6.89998C13.2 5.99998 13.4 5.19998 13.4 4.69998ZM9 3.69998C9.3 3.39998 9.6 3.29998 10 3.29998C10.4 3.29998 10.7 3.39998 11 3.69998C11.3 3.99998 11.4 4.29998 11.4 4.69998C11.4 5.09998 11.3 5.39998 11 5.69998C10.7 5.99998 10.4 6.09998 10 6.09998C9.6 6.09998 9.3 5.99998 9 5.69998C8.7 5.39998 8.6 5.09998 8.6 4.69998C8.6 4.29998 8.7 3.89998 9 3.69998ZM7.8 9.09998C7.8 8.79998 7.9 8.49998 7.9 8.09998H8.2C8.7 8.69998 9.3 9.39997 10 9.99998C10.7 9.39997 11.3 8.69998 11.8 8.09998H12.1C12.2 8.49998 12.2 8.89997 12.2 9.19998C12.2 9.49998 12.2 9.79998 12.2 9.99998C12.2 10.3 12.2 10.5 12.2 10.8C12.2 11.1 12.1 11.4 12.1 11.9H7.9C7.9 11.6 7.8 11.2 7.8 10.9C7.8 10.6 7.8 10.3 7.8 9.99998C7.7 9.69998 7.7 9.39998 7.8 9.09998ZM6 4.69998C6.2 4.59998 6.4 4.39998 6.6 4.29998C6.6 4.39998 6.6 4.49998 6.6 4.59998C6.6 5.19998 6.9 5.89998 7.3 6.69998C7.3 6.79998 7.2 6.99998 7.2 7.09998H4.1C4.5 6.19998 5.2 5.39998 6 4.69998ZM3.5 10.9C3.5 10.6 3.4 10.3 3.4 9.99998C3.4 9.69998 3.4 9.39998 3.5 9.09998C3.5 8.79998 3.6 8.39998 3.7 8.09998H7C7 8.39998 6.9 8.79998 6.9 9.09998C6.9 9.39998 6.9 9.69998 6.9 9.99998C6.9 10.3 6.9 10.6 6.9 10.9C6.9 11.2 7 11.5 7 11.9H3.7C3.6 11.5 3.5 11.2 3.5 10.9ZM6 15.2C5.1 14.6 4.5 13.7 4 12.7H7.1C7.2 13.4 7.5 14.1 7.8 14.7C8.1 15.4 8.4 15.9 8.8 16.3C7.8 16.3 6.9 15.9 6 15.2ZM8.9 14.8C8.6 14.2 8.4 13.5 8.1 12.8H11.9C11.7 13.5 11.5 14.2 11.2 14.8C10.9 15.4 10.5 16 10 16.6C9.5 16 9.1 15.4 8.9 14.8ZM14 15.2C13.1 15.8 12.2 16.2 11.2 16.4C11.5 16 11.8 15.4 12.1 14.8C12.4 14.1 12.7 13.5 12.9 12.8H16C15.5 13.8 14.8 14.6 14 15.2ZM16.5 11C16.5 11.3 16.4 11.6 16.3 11.9H13C13.1 11.5 13.1 11.1 13.1 10.8C13.1 10.5 13.1 10.2 13.1 9.99998C13.1 9.79998 13.1 9.49998 13.1 9.19998C13.1 8.89997 13 8.49998 13 8.09998H16.3C16.4 8.39998 16.5 8.69998 16.5 8.99998C16.5 9.29998 16.6 9.69998 16.6 9.99998C16.6 10.3 16.6 10.6 16.5 11Z" fill="white"/>
</svg>
