<svg width="115" height="50" viewBox="0 0 115 50" fill="none" xmlns="http://www.w3.org/2000/svg">
<path d="M44.7418 37.4959H34.1995V40.8049H41.5162L41.5257 40.9792C40.5407 43.8588 38.2811 45.5214 34.7156 45.5214C30.5994 45.5214 27.4934 42.1349 27.4934 37.8542C27.4934 33.4024 30.7253 29.8901 35.0146 29.8901C38.3 29.8901 40.6414 31.543 41.9694 34.5001L44.9936 33.0699C43.1243 28.9184 39.5808 26.6328 35.0146 26.6328C28.9315 26.6328 24.167 31.5623 24.167 37.8575C24.167 43.9847 28.8025 48.7852 34.7188 48.7852C37.806 48.7852 40.1378 47.5068 41.8215 45.5117L42.1236 48.0039H44.745V37.4959H44.7418Z" fill="black"/>
<path d="M44.7419 19.5822H28.0693V14.1232H42.8222V10.9562H28.0693V5.49721H44.7419V2.24634H24.6706V22.833H44.7419V19.5822Z" fill="black"/>
<path d="M16.7843 10.7528H3.53562V2.2431H0.140056V22.833H3.53562V14.036H16.7843V22.833H20.2113V2.2431H16.7843V10.7528Z" fill="black"/>
<path d="M11.8751 44.7175V30.6907H20.2113V27.4108H0.140056V30.6907H8.47634V44.7175H0.140056V48.0007H20.2113V44.7175H11.8751Z" fill="black"/>
<path fill-rule="evenodd" clip-rule="evenodd" d="M69.4677 48.7787L69.4677 2.22699L69.958 2.22699L69.958 48.7787L69.4677 48.7787Z" fill="black"/>
<path d="M80.0364 7.97413H78.9888V4.04669L77.4174 7.97413H76.5315L74.9601 4.0783V7.97413H73.9433V2.3714H75.3452L76.986 6.41738L78.5882 2.3714H80.0364V7.97413Z" fill="black"/>
<path d="M84.7055 7.97413H81.2853V2.3714H84.7055V3.3987H82.3483V4.67887H84.4821V5.65085H82.3483V6.94683H84.7055V7.97413Z" fill="black"/>
<path d="M86.8472 7.97413H85.7687V2.3714H86.8472V7.97413Z" fill="black"/>
<path d="M79.9132 27.9454H79.166V23.5833L77.3018 27.9454H76.6085L74.7598 23.5833V27.9454H74.0126V22.3427H75.0371L76.9629 26.9023L78.9041 22.3427H79.9132V27.9454Z" fill="black"/>
<path d="M81.6948 25.6537H83.7207C83.7105 25.3692 83.618 25.1374 83.4434 24.9583C83.2688 24.7739 83.0223 24.6817 82.7039 24.6817C82.4163 24.6817 82.1801 24.7792 81.9952 24.9741C81.8104 25.1638 81.7102 25.3903 81.6948 25.6537ZM83.8286 26.6415L84.4525 26.8628C84.3447 27.2157 84.1444 27.5055 83.8517 27.732C83.559 27.9533 83.2046 28.0639 82.7887 28.0639C82.27 28.0639 81.8283 27.8822 81.4637 27.5187C81.1042 27.1499 80.9245 26.6547 80.9245 26.033C80.9245 25.4535 81.0991 24.9741 81.4483 24.5948C81.7975 24.2155 82.2135 24.0258 82.6962 24.0258C83.256 24.0258 83.6925 24.2076 84.0057 24.5711C84.319 24.9293 84.4756 25.4114 84.4756 26.0172C84.4756 26.1121 84.4705 26.1911 84.4602 26.2543H81.6717C81.6768 26.5915 81.7847 26.868 81.9952 27.084C82.2109 27.3 82.4754 27.408 82.7887 27.408C83.3176 27.408 83.6642 27.1525 83.8286 26.6415Z" fill="black"/>
<path d="M85.8313 26.033C85.8313 26.4334 85.9263 26.76 86.1163 27.0129C86.3115 27.2658 86.5785 27.3922 86.9175 27.3922C87.241 27.3922 87.5003 27.2632 87.6955 27.005C87.8906 26.7469 87.9882 26.4176 87.9882 26.0172C87.9882 25.6221 87.8932 25.3034 87.7032 25.061C87.5132 24.8187 87.2538 24.6975 86.9252 24.6975C86.5965 24.6975 86.332 24.8213 86.1317 25.069C85.9315 25.3166 85.8313 25.6379 85.8313 26.033ZM87.9959 27.4317V27.3685C87.8983 27.5634 87.7494 27.7268 87.5491 27.8585C87.354 27.9849 87.1203 28.0481 86.8481 28.0481C86.3192 28.0481 85.8929 27.8585 85.5694 27.4791C85.251 27.0946 85.0918 26.6125 85.0918 26.033C85.0918 25.4799 85.2562 25.011 85.5848 24.6264C85.9135 24.2366 86.3346 24.0417 86.8481 24.0417C87.1511 24.0417 87.3976 24.1049 87.5876 24.2313C87.7776 24.3525 87.9086 24.5026 87.9805 24.6817V22.2241H88.6969V27.2421C88.6969 27.5002 88.7097 27.7347 88.7354 27.9454H88.0344C88.0087 27.7979 87.9959 27.6267 87.9959 27.4317Z" fill="black"/>
<path d="M90.6449 27.9454H89.9285V24.1444H90.6449V27.9454ZM89.9131 23.0855C89.8155 22.9801 89.7668 22.8537 89.7668 22.7062C89.7668 22.5587 89.8155 22.4322 89.9131 22.3269C90.0158 22.2215 90.1391 22.1688 90.2829 22.1688C90.4267 22.1688 90.5499 22.2215 90.6526 22.3269C90.7553 22.427 90.8067 22.5534 90.8067 22.7062C90.8067 22.8537 90.7553 22.9801 90.6526 23.0855C90.5499 23.1856 90.4267 23.2356 90.2829 23.2356C90.1391 23.2356 90.0158 23.1856 89.9131 23.0855Z" fill="black"/>
<path d="M91.6458 26.926C91.6458 26.5994 91.7485 26.3386 91.9539 26.1437C92.1593 25.9435 92.4315 25.8197 92.7704 25.7723L93.7718 25.6221C93.9618 25.5958 94.0568 25.5009 94.0568 25.3376C94.0568 25.1374 93.9901 24.9741 93.8566 24.8477C93.723 24.7212 93.5228 24.658 93.2557 24.658C93.0092 24.658 92.8141 24.7292 92.6703 24.8714C92.5265 25.0084 92.4418 25.1928 92.4161 25.4246L91.7228 25.2586C91.7587 24.8951 91.9205 24.6001 92.2081 24.3735C92.4957 24.1417 92.8397 24.0258 93.2403 24.0258C93.7641 24.0258 94.1518 24.1576 94.4035 24.421C94.6551 24.6791 94.7809 25.011 94.7809 25.4166V27.3211C94.7809 27.5476 94.7963 27.7557 94.8271 27.9454H94.1185C94.0928 27.7873 94.0799 27.6161 94.0799 27.4317C93.9772 27.6003 93.8257 27.7478 93.6255 27.8743C93.4303 28.0007 93.1838 28.0639 92.886 28.0639C92.5213 28.0639 92.2235 27.9533 91.9924 27.732C91.7613 27.5055 91.6458 27.2368 91.6458 26.926ZM92.9861 27.4396C93.3096 27.4396 93.569 27.3501 93.7641 27.171C93.9593 26.9918 94.0568 26.7074 94.0568 26.3175V26.1437L92.9245 26.3175C92.7601 26.3439 92.6292 26.4044 92.5316 26.4993C92.434 26.5941 92.3853 26.7232 92.3853 26.8865C92.3853 27.034 92.4392 27.1631 92.547 27.2737C92.66 27.3843 92.8064 27.4396 92.9861 27.4396Z" fill="black"/>
<path d="M77.3326 37.931H74.0126V32.3283H77.3326V33.0474H74.7675V34.7701H77.0938V35.4971H74.7675V37.2119H77.3326V37.931Z" fill="black"/>
<path d="M79.0227 35.7342V37.931H78.2987V34.13H79.0073V34.6753C79.2538 34.238 79.6339 34.0194 80.1474 34.0194C80.5736 34.0194 80.8997 34.159 81.1257 34.4382C81.3568 34.7174 81.4723 35.0783 81.4723 35.5208V37.931H80.7482V35.6473C80.7482 35.0098 80.4607 34.6911 79.8855 34.6911C79.6133 34.6911 79.4002 34.7912 79.2461 34.9914C79.0972 35.1863 79.0227 35.4339 79.0227 35.7342Z" fill="black"/>
<path d="M82.3545 38.1365L83.0555 37.9705C83.0812 38.2392 83.1864 38.4605 83.3713 38.6343C83.5562 38.8134 83.7873 38.903 84.0646 38.903C84.8195 38.903 85.197 38.4921 85.197 37.6702V37.125C85.1045 37.3094 84.9582 37.4595 84.7579 37.5754C84.5627 37.6913 84.3316 37.7493 84.0646 37.7493C83.5716 37.7493 83.1633 37.578 82.8398 37.2356C82.5214 36.8879 82.3622 36.4454 82.3622 35.908C82.3622 35.3865 82.5214 34.9492 82.8398 34.5962C83.1582 34.238 83.5665 34.0589 84.0646 34.0589C84.6295 34.0589 85.0095 34.2591 85.2047 34.6595V34.13H85.921V37.6465C85.921 37.8994 85.8877 38.1338 85.8209 38.3498C85.7593 38.5711 85.6591 38.7739 85.5205 38.9583C85.3818 39.1427 85.1867 39.2876 84.935 39.3929C84.6885 39.4983 84.3984 39.551 84.0646 39.551C83.6075 39.551 83.2198 39.4166 82.9014 39.148C82.583 38.8846 82.4007 38.5474 82.3545 38.1365ZM84.1724 37.125C84.4857 37.125 84.7399 37.0144 84.935 36.7931C85.1302 36.5666 85.2278 36.2715 85.2278 35.908C85.2278 35.5445 85.1302 35.2521 84.935 35.0309C84.7399 34.8043 84.4857 34.6911 84.1724 34.6911C83.854 34.6911 83.5947 34.8017 83.3944 35.023C83.1993 35.2442 83.1017 35.5393 83.1017 35.908C83.1017 36.2821 83.1967 36.5797 83.3867 36.801C83.5819 37.017 83.8438 37.125 84.1724 37.125Z" fill="black"/>
<path d="M87.7939 37.931H87.0775V34.13H87.7939V37.931ZM87.0621 33.0711C86.9645 32.9657 86.9157 32.8393 86.9157 32.6918C86.9157 32.5443 86.9645 32.4178 87.0621 32.3125C87.1648 32.2071 87.288 32.1544 87.4318 32.1544C87.5756 32.1544 87.6989 32.2071 87.8016 32.3125C87.9043 32.4126 87.9556 32.539 87.9556 32.6918C87.9556 32.8393 87.9043 32.9657 87.8016 33.0711C87.6989 33.1712 87.5756 33.2212 87.4318 33.2212C87.288 33.2212 87.1648 33.1712 87.0621 33.0711Z" fill="black"/>
<path d="M89.7499 35.7342V37.931H89.0258V34.13H89.7345V34.6753C89.981 34.238 90.361 34.0194 90.8746 34.0194C91.3008 34.0194 91.6269 34.159 91.8528 34.4382C92.0839 34.7174 92.1995 35.0783 92.1995 35.5208V37.931H91.4754V35.6473C91.4754 35.0098 91.1878 34.6911 90.6126 34.6911C90.3405 34.6911 90.1274 34.7912 89.9733 34.9914C89.8244 35.1863 89.7499 35.4339 89.7499 35.7342Z" fill="black"/>
<path d="M93.8212 35.6394H95.8471C95.8368 35.3549 95.7444 35.1231 95.5698 34.9439C95.3952 34.7596 95.1487 34.6674 94.8303 34.6674C94.5427 34.6674 94.3065 34.7648 94.1216 34.9598C93.9367 35.1494 93.8366 35.3759 93.8212 35.6394ZM95.9549 36.6271L96.5789 36.8484C96.471 37.2014 96.2708 37.4911 95.978 37.7177C95.6853 37.9389 95.331 38.0495 94.915 38.0495C94.3963 38.0495 93.9547 37.8678 93.5901 37.5043C93.2306 37.1355 93.0509 36.6403 93.0509 36.0187C93.0509 35.4392 93.2255 34.9597 93.5747 34.5804C93.9239 34.2011 94.3398 34.0115 94.8226 34.0115C95.3823 34.0115 95.8188 34.1932 96.1321 34.5567C96.4454 34.915 96.602 35.397 96.602 36.0029C96.602 36.0977 96.5968 36.1767 96.5866 36.2399H93.7981C93.8032 36.5771 93.911 36.8537 94.1216 37.0697C94.3373 37.2857 94.6017 37.3937 94.915 37.3937C95.444 37.3937 95.7906 37.1382 95.9549 36.6271Z" fill="black"/>
<path d="M97.9962 35.6394H100.022C100.012 35.3549 99.9194 35.1231 99.7448 34.9439C99.5702 34.7596 99.3237 34.6674 99.0053 34.6674C98.7177 34.6674 98.4815 34.7648 98.2966 34.9598C98.1117 35.1494 98.0116 35.3759 97.9962 35.6394ZM100.13 36.6271L100.754 36.8484C100.646 37.2014 100.446 37.4911 100.153 37.7177C99.8603 37.9389 99.506 38.0495 99.09 38.0495C98.5713 38.0495 98.1297 37.8678 97.7651 37.5043C97.4056 37.1355 97.2259 36.6403 97.2259 36.0187C97.2259 35.4392 97.4005 34.9597 97.7497 34.5804C98.0989 34.2011 98.5149 34.0115 98.9976 34.0115C99.5573 34.0115 99.9939 34.1932 100.307 34.5567C100.62 34.915 100.777 35.397 100.777 36.0029C100.777 36.0977 100.772 36.1767 100.762 36.2399H97.9731C97.9782 36.5771 98.0861 36.8537 98.2966 37.0697C98.5123 37.2857 98.7768 37.3937 99.09 37.3937C99.619 37.3937 99.9656 37.1382 100.13 36.6271Z" fill="black"/>
<path d="M103.758 34.0905V34.8807C103.65 34.8649 103.545 34.857 103.442 34.857C102.764 34.857 102.425 35.2469 102.425 36.0266V37.931H101.701V34.13H102.41V34.7938C102.636 34.3091 103.006 34.0668 103.519 34.0668C103.601 34.0668 103.681 34.0747 103.758 34.0905Z" fill="black"/>
<path d="M105.246 37.931H104.53V34.13H105.246V37.931ZM104.514 33.0711C104.417 32.9657 104.368 32.8393 104.368 32.6918C104.368 32.5443 104.417 32.4178 104.514 32.3125C104.617 32.2071 104.74 32.1544 104.884 32.1544C105.028 32.1544 105.151 32.2071 105.254 32.3125C105.357 32.4126 105.408 32.539 105.408 32.6918C105.408 32.8393 105.357 32.9657 105.254 33.0711C105.151 33.1712 105.028 33.2212 104.884 33.2212C104.74 33.2212 104.617 33.1712 104.514 33.0711Z" fill="black"/>
<path d="M107.202 35.7342V37.931H106.478V34.13H107.187V34.6753C107.433 34.238 107.813 34.0194 108.327 34.0194C108.753 34.0194 109.079 34.159 109.305 34.4382C109.536 34.7174 109.652 35.0783 109.652 35.5208V37.931H108.928V35.6473C108.928 35.0098 108.64 34.6911 108.065 34.6911C107.793 34.6911 107.58 34.7912 107.426 34.9914C107.277 35.1863 107.202 35.4339 107.202 35.7342Z" fill="black"/>
<path d="M110.534 38.1365L111.235 37.9705C111.261 38.2392 111.366 38.4605 111.551 38.6343C111.736 38.8134 111.967 38.903 112.244 38.903C112.999 38.903 113.376 38.4921 113.376 37.6702V37.125C113.284 37.3094 113.138 37.4595 112.937 37.5754C112.742 37.6913 112.511 37.7493 112.244 37.7493C111.751 37.7493 111.343 37.578 111.019 37.2356C110.701 36.8879 110.542 36.4454 110.542 35.908C110.542 35.3865 110.701 34.9492 111.019 34.5962C111.338 34.238 111.746 34.0589 112.244 34.0589C112.809 34.0589 113.189 34.2591 113.384 34.6595V34.13H114.101V37.6465C114.101 37.8994 114.067 38.1338 114 38.3498C113.939 38.5711 113.839 38.7739 113.7 38.9583C113.561 39.1427 113.366 39.2876 113.115 39.3929C112.868 39.4983 112.578 39.551 112.244 39.551C111.787 39.551 111.399 39.4166 111.081 39.148C110.763 38.8846 110.58 38.5474 110.534 38.1365ZM112.352 37.125C112.665 37.125 112.919 37.0144 113.115 36.7931C113.31 36.5666 113.407 36.2715 113.407 35.908C113.407 35.5445 113.31 35.2521 113.115 35.0309C112.919 34.8043 112.665 34.6911 112.352 34.6911C112.034 34.6911 111.774 34.8017 111.574 35.023C111.379 35.2442 111.281 35.5393 111.281 35.908C111.281 36.2821 111.376 36.5797 111.566 36.801C111.761 37.017 112.023 37.125 112.352 37.125Z" fill="black"/>
<path d="M74.7829 47.9166H74.0126V42.3139H74.7829V47.9166Z" fill="black"/>
<path d="M76.8186 45.7198V47.9166H76.0945V44.1156H76.8032V44.6609C77.0497 44.2236 77.4297 44.005 77.9433 44.005C78.3695 44.005 78.6956 44.1446 78.9216 44.4238C79.1527 44.703 79.2682 45.0639 79.2682 45.5064V47.9166H78.5441V45.6329C78.5441 44.9954 78.2565 44.6767 77.6814 44.6767C77.4092 44.6767 77.1961 44.7768 77.042 44.977C76.8931 45.1719 76.8186 45.4195 76.8186 45.7198Z" fill="black"/>
<path d="M80.0734 46.9289L80.7281 46.6918C80.7538 46.8972 80.8411 47.0685 80.99 47.2054C81.139 47.3371 81.3392 47.403 81.5909 47.403C81.786 47.403 81.9401 47.3556 82.0531 47.2607C82.166 47.1607 82.2225 47.0395 82.2225 46.8972C82.2225 46.6444 82.0633 46.4811 81.7449 46.4073L81.1133 46.2651C80.8257 46.2018 80.5998 46.0754 80.4354 45.8857C80.2711 45.6961 80.1889 45.4669 80.1889 45.1982C80.1889 44.8716 80.3173 44.5898 80.5741 44.3527C80.836 44.1156 81.1467 43.9971 81.5061 43.9971C81.7424 43.9971 81.9529 44.034 82.1378 44.1077C82.3227 44.1762 82.4665 44.2684 82.5692 44.3843C82.6719 44.5002 82.7489 44.6082 82.8003 44.7083C82.8516 44.8084 82.8901 44.9111 82.9158 45.0165L82.2765 45.2615C82.2662 45.1982 82.2482 45.1377 82.2225 45.0797C82.1969 45.0165 82.1558 44.948 82.0993 44.8743C82.0479 44.8005 81.9709 44.7425 81.8682 44.7004C81.7655 44.653 81.6448 44.6293 81.5061 44.6293C81.3264 44.6293 81.1775 44.6793 81.0594 44.7794C80.9464 44.8795 80.8899 44.9981 80.8899 45.135C80.8899 45.3774 81.0311 45.5301 81.3136 45.5934L81.9144 45.7277C82.2431 45.8015 82.4947 45.9384 82.6693 46.1386C82.8491 46.3335 82.9389 46.5733 82.9389 46.8577C82.9389 47.158 82.8182 47.4293 82.5769 47.6717C82.3406 47.914 82.0094 48.0352 81.5832 48.0352C81.1261 48.0352 80.7692 47.9193 80.5124 47.6875C80.2557 47.4504 80.1093 47.1975 80.0734 46.9289Z" fill="black"/>
<path d="M84.8735 42.9145V44.1156H85.6747V44.7873H84.8735V46.7629C84.8735 46.942 84.9121 47.0737 84.9891 47.158C85.0713 47.2423 85.2048 47.2845 85.3897 47.2845C85.4975 47.2845 85.5925 47.2739 85.6747 47.2528V47.885C85.5514 47.9324 85.3871 47.9562 85.1817 47.9562C84.8633 47.9562 84.6116 47.8613 84.4268 47.6717C84.2419 47.482 84.1495 47.216 84.1495 46.8735V44.7873H83.4408V44.1156H83.641C83.8311 44.1156 83.9723 44.063 84.0647 43.9576C84.1623 43.847 84.2111 43.7047 84.2111 43.5309V42.9145H84.8735Z" fill="black"/>
<path d="M87.3575 47.9166H86.6412V44.1156H87.3575V47.9166ZM86.6258 43.0567C86.5282 42.9514 86.4794 42.8249 86.4794 42.6774C86.4794 42.5299 86.5282 42.4035 86.6258 42.2981C86.7285 42.1927 86.8517 42.1401 86.9955 42.1401C87.1393 42.1401 87.2625 42.1927 87.3653 42.2981C87.468 42.3982 87.5193 42.5246 87.5193 42.6774C87.5193 42.8249 87.468 42.9514 87.3653 43.0567C87.2625 43.1568 87.1393 43.2069 86.9955 43.2069C86.8517 43.2069 86.7285 43.1568 86.6258 43.0567Z" fill="black"/>
<path d="M89.5601 42.9145V44.1156H90.3612V44.7873H89.5601V46.7629C89.5601 46.942 89.5986 47.0737 89.6756 47.158C89.7578 47.2423 89.8913 47.2845 90.0762 47.2845C90.184 47.2845 90.279 47.2739 90.3612 47.2528V47.885C90.238 47.9324 90.0736 47.9562 89.8682 47.9562C89.5498 47.9562 89.2982 47.8613 89.1133 47.6717C88.9284 47.482 88.836 47.216 88.836 46.8735V44.7873H88.1273V44.1156H88.3276C88.5176 44.1156 88.6588 44.063 88.7513 43.9576C88.8488 43.847 88.8976 43.7047 88.8976 43.5309V42.9145H89.5601Z" fill="black"/>
<path d="M93.7696 47.4583C93.672 47.648 93.5231 47.7928 93.3228 47.8929C93.1225 47.9878 92.9068 48.0352 92.6758 48.0352C92.2547 48.0352 91.9183 47.8929 91.6666 47.6085C91.415 47.3187 91.2892 46.9526 91.2892 46.51V44.1156H92.0133V46.3994C92.0133 46.6839 92.08 46.9183 92.2136 47.1027C92.3522 47.2871 92.5653 47.3793 92.8529 47.3793C93.1405 47.3793 93.3588 47.2924 93.5077 47.1185C93.6566 46.9394 93.7311 46.7023 93.7311 46.4073V44.1156H94.4552V47.2133C94.4552 47.4609 94.468 47.6954 94.4937 47.9166H93.8004C93.7799 47.8007 93.7696 47.648 93.7696 47.4583Z" fill="black"/>
<path d="M96.6614 42.9145V44.1156H97.4625V44.7873H96.6614V46.7629C96.6614 46.942 96.6999 47.0737 96.7769 47.158C96.8591 47.2423 96.9926 47.2845 97.1775 47.2845C97.2853 47.2845 97.3803 47.2739 97.4625 47.2528V47.885C97.3393 47.9324 97.1749 47.9562 96.9695 47.9562C96.6511 47.9562 96.3995 47.8613 96.2146 47.6717C96.0297 47.482 95.9373 47.216 95.9373 46.8735V44.7873H95.2286V44.1156H95.4289C95.6189 44.1156 95.7601 44.063 95.8526 43.9576C95.9501 43.847 95.9989 43.7047 95.9989 43.5309V42.9145H96.6614Z" fill="black"/>
<path d="M98.8613 45.625H100.887C100.877 45.3405 100.784 45.1087 100.61 44.9296C100.435 44.7452 100.189 44.653 99.8704 44.653C99.5828 44.653 99.3466 44.7505 99.1617 44.9454C98.9768 45.135 98.8767 45.3616 98.8613 45.625ZM100.995 46.6128L101.619 46.834C101.511 47.187 101.311 47.4767 101.018 47.7033C100.725 47.9245 100.371 48.0352 99.9551 48.0352C99.4364 48.0352 98.9948 47.8534 98.6302 47.4899C98.2707 47.1211 98.091 46.6259 98.091 46.0043C98.091 45.4248 98.2656 44.9454 98.6148 44.5661C98.964 44.1868 99.38 43.9971 99.8627 43.9971C100.422 43.9971 100.859 44.1789 101.172 44.5424C101.485 44.9006 101.642 45.3826 101.642 45.9885C101.642 46.0833 101.637 46.1623 101.627 46.2256H98.8382C98.8433 46.5627 98.9511 46.8393 99.1617 47.0553C99.3774 47.2713 99.6419 47.3793 99.9551 47.3793C100.484 47.3793 100.831 47.1238 100.995 46.6128Z" fill="black"/>
<path d="M51.895 6.46407L53.32 2.29956H54.4447L52.4188 7.90229H51.3249L49.3067 2.29956H50.4699L51.895 6.46407Z" fill="black"/>
<path d="M56.205 6.8908H57.0524C57.5299 6.8908 57.9228 6.73802 58.2309 6.43246C58.539 6.12691 58.6931 5.68438 58.6931 5.10488C58.6931 4.52537 58.539 4.08285 58.2309 3.77729C57.9228 3.46647 57.5325 3.31105 57.0601 3.31105H56.205V6.8908ZM57.0909 7.90229H55.142V2.29956H57.0986C57.8946 2.29956 58.5416 2.5498 59.0397 3.05028C59.543 3.55076 59.7946 4.23562 59.7946 5.10488C59.7946 5.96886 59.543 6.65109 59.0397 7.15157C58.5365 7.65205 57.8869 7.90229 57.0909 7.90229Z" fill="black"/>
</svg>
