<svg width="12" height="13" viewBox="0 0 12 13" fill="none" xmlns="http://www.w3.org/2000/svg">
<mask id="mask0_97_2886" style="mask-type:alpha" maskUnits="userSpaceOnUse" x="0" y="0" width="12" height="13">
<rect y="0.5" width="12" height="12" fill="#D9D9D9"/>
</mask>
<g mask="url(#mask0_97_2886)">
<path d="M3.57476 10.4624L3.49976 9.875L4.78736 6.3128C4.86256 6.3792 4.94176 6.4292 5.02496 6.4628C5.10816 6.496 5.19556 6.525 5.28716 6.5498L4.02476 10.0502L3.57476 10.4624ZM8.42516 10.4624L7.96256 10.0502L6.70016 6.5498C6.79176 6.525 6.87916 6.496 6.96236 6.4628C7.04556 6.4292 7.12476 6.3792 7.19996 6.3128L8.50016 9.875L8.42516 10.4624ZM5.99996 5.75C5.64996 5.75 5.35196 5.627 5.10596 5.381C4.86036 5.1354 4.73756 4.8376 4.73756 4.4876C4.73756 4.1624 4.83756 3.8894 5.03756 3.6686C5.23756 3.4478 5.46676 3.3124 5.72516 3.2624V2H6.27476V3.2624C6.53316 3.3124 6.76236 3.4478 6.96236 3.6686C7.16236 3.8894 7.26236 4.1624 7.26236 4.4876C7.26236 4.8376 7.13956 5.1354 6.89396 5.381C6.64796 5.627 6.34996 5.75 5.99996 5.75ZM5.99996 5.1998C6.19996 5.1998 6.36876 5.129 6.50636 4.9874C6.64396 4.8458 6.71276 4.6792 6.71276 4.4876C6.71276 4.2876 6.64176 4.1188 6.49976 3.9812C6.35816 3.8436 6.19156 3.7748 5.99996 3.7748C5.79996 3.7748 5.63116 3.8458 5.49356 3.9878C5.35596 4.1294 5.28716 4.296 5.28716 4.4876C5.28716 4.6876 5.35816 4.8564 5.50016 4.994C5.64176 5.1312 5.80836 5.1998 5.99996 5.1998Z" fill="white"/>
</g>
</svg>
