<svg width="20" height="20" viewBox="0 0 20 20" fill="none" xmlns="http://www.w3.org/2000/svg">
<path d="M5.042 6.104C4.736 6.104 4.48234 6.00334 4.281 5.802C4.07967 5.60067 3.979 5.34734 3.979 5.042C3.979 4.736 4.07967 4.48234 4.281 4.281C4.48234 4.07967 4.736 3.979 5.042 3.979C5.34734 3.979 5.60067 4.07967 5.802 4.281C6.00334 4.48234 6.104 4.736 6.104 5.042C6.104 5.34734 6.00334 5.60067 5.802 5.802C5.60067 6.00334 5.34734 6.104 5.042 6.104ZM10 16.021C9.69467 16.021 9.44134 15.9203 9.24 15.719C9.03867 15.5177 8.938 15.264 8.938 14.958C8.938 14.6527 9.03867 14.3993 9.24 14.198C9.44134 13.9967 9.69467 13.896 10 13.896C10.3053 13.896 10.5587 13.9967 10.76 14.198C10.9613 14.3993 11.062 14.6527 11.062 14.958C11.062 15.264 10.9613 15.5177 10.76 15.719C10.5587 15.9203 10.3053 16.021 10 16.021ZM5.042 16.021C4.736 16.021 4.48234 15.9203 4.281 15.719C4.07967 15.5177 3.979 15.264 3.979 14.958C3.979 14.6527 4.07967 14.3993 4.281 14.198C4.48234 13.9967 4.736 13.896 5.042 13.896C5.34734 13.896 5.60067 13.9967 5.802 14.198C6.00334 14.3993 6.104 14.6527 6.104 14.958C6.104 15.264 6.00334 15.5177 5.802 15.719C5.60067 15.9203 5.34734 16.021 5.042 16.021ZM5.042 11.062C4.736 11.062 4.48234 10.9613 4.281 10.76C4.07967 10.5587 3.979 10.3053 3.979 10C3.979 9.69467 4.07967 9.44134 4.281 9.24C4.48234 9.03867 4.736 8.938 5.042 8.938C5.34734 8.938 5.60067 9.03867 5.802 9.24C6.00334 9.44134 6.104 9.69467 6.104 10C6.104 10.3053 6.00334 10.5587 5.802 10.76C5.60067 10.9613 5.34734 11.062 5.042 11.062ZM10 11.062C9.69467 11.062 9.44134 10.9613 9.24 10.76C9.03867 10.5587 8.938 10.3053 8.938 10C8.938 9.69467 9.03867 9.44134 9.24 9.24C9.44134 9.03867 9.69467 8.938 10 8.938C10.3053 8.938 10.5587 9.03867 10.76 9.24C10.9613 9.44134 11.062 9.69467 11.062 10C11.062 10.3053 10.9613 10.5587 10.76 10.76C10.5587 10.9613 10.3053 11.062 10 11.062ZM14.958 6.104C14.6527 6.104 14.3993 6.00334 14.198 5.802C13.9967 5.60067 13.896 5.34734 13.896 5.042C13.896 4.736 13.9967 4.48234 14.198 4.281C14.3993 4.07967 14.6527 3.979 14.958 3.979C15.264 3.979 15.5177 4.07967 15.719 4.281C15.9203 4.48234 16.021 4.736 16.021 5.042C16.021 5.34734 15.9203 5.60067 15.719 5.802C15.5177 6.00334 15.264 6.104 14.958 6.104ZM10 6.104C9.69467 6.104 9.44134 6.00334 9.24 5.802C9.03867 5.60067 8.938 5.34734 8.938 5.042C8.938 4.736 9.03867 4.48234 9.24 4.281C9.44134 4.07967 9.69467 3.979 10 3.979C10.3053 3.979 10.5587 4.07967 10.76 4.281C10.9613 4.48234 11.062 4.736 11.062 5.042C11.062 5.34734 10.9613 5.60067 10.76 5.802C10.5587 6.00334 10.3053 6.104 10 6.104ZM14.958 11.062C14.6527 11.062 14.3993 10.9613 14.198 10.76C13.9967 10.5587 13.896 10.3053 13.896 10C13.896 9.69467 13.9967 9.44134 14.198 9.24C14.3993 9.03867 14.6527 8.938 14.958 8.938C15.264 8.938 15.5177 9.03867 15.719 9.24C15.9203 9.44134 16.021 9.69467 16.021 10C16.021 10.3053 15.9203 10.5587 15.719 10.76C15.5177 10.9613 15.264 11.062 14.958 11.062ZM14.958 16.021C14.6527 16.021 14.3993 15.9203 14.198 15.719C13.9967 15.5177 13.896 15.264 13.896 14.958C13.896 14.6527 13.9967 14.3993 14.198 14.198C14.3993 13.9967 14.6527 13.896 14.958 13.896C15.264 13.896 15.5177 13.9967 15.719 14.198C15.9203 14.3993 16.021 14.6527 16.021 14.958C16.021 15.264 15.9203 15.5177 15.719 15.719C15.5177 15.9203 15.264 16.021 14.958 16.021Z" fill="black"/>
</svg>
