<svg width="12" height="13" viewBox="0 0 12 13" fill="none" xmlns="http://www.w3.org/2000/svg">
<path d="M2.7001 9.94999H3.2749L8.2627 4.95019L7.9873 4.66279L7.6999 4.38739L2.7001 9.37519V9.94999ZM2.1499 10.5002V9.13759L8.4373 2.85019C8.5457 2.73339 8.6749 2.67499 8.8249 2.67499C8.9749 2.67499 9.1083 2.73339 9.2251 2.85019L9.7999 3.42499C9.9083 3.53339 9.9625 3.66679 9.9625 3.82519C9.9625 3.98359 9.9083 4.11679 9.7999 4.22479L3.5125 10.5002H2.1499ZM9.4129 3.81259L8.8375 3.23719L9.4129 3.81259ZM8.2627 4.95019L7.9873 4.66279L7.6999 4.38739V4.37479L8.2627 4.95019Z" fill="white"/>
</svg>
