<svg width="23" height="23" viewBox="0 0 23 23" fill="none" xmlns="http://www.w3.org/2000/svg">
<path d="M11.521 16.458C11.299 16.458 11.1113 16.3783 10.958 16.219C10.8053 16.059 10.729 15.875 10.729 15.667C10.729 15.4443 10.8053 15.2567 10.958 15.104C11.1113 14.9513 11.299 14.875 11.521 14.875C11.743 14.875 11.9303 14.9513 12.083 15.104C12.2357 15.2567 12.312 15.4373 12.312 15.646C12.312 15.868 12.2357 16.059 12.083 16.219C11.9303 16.3783 11.743 16.458 11.521 16.458ZM11.521 11.792C11.299 11.792 11.1113 11.7153 10.958 11.562C10.8053 11.4093 10.729 11.222 10.729 11C10.729 10.778 10.8053 10.5907 10.958 10.438C11.1113 10.2847 11.299 10.208 11.521 10.208C11.743 10.208 11.9303 10.2847 12.083 10.438C12.2357 10.5907 12.312 10.778 12.312 11C12.312 11.222 12.2357 11.4093 12.083 11.562C11.9303 11.7153 11.743 11.792 11.521 11.792ZM11.521 7.12499C11.299 7.12499 11.1113 7.04866 10.958 6.89599C10.8053 6.74333 10.729 6.56266 10.729 6.35399C10.729 6.13199 10.8053 5.94099 10.958 5.78099C11.1113 5.62166 11.299 5.54199 11.521 5.54199C11.743 5.54199 11.9303 5.62166 12.083 5.78099C12.2357 5.94099 12.312 6.12499 12.312 6.33299C12.312 6.55566 12.2357 6.74333 12.083 6.89599C11.9303 7.04866 11.743 7.12499 11.521 7.12499Z" fill="white"/>
</svg>
