<svg width="20" height="20" viewBox="0 0 20 20" fill="none" xmlns="http://www.w3.org/2000/svg">
<path d="M11.562 17.333C10.84 17.333 10.2393 17.0867 9.76 16.594C9.28133 16.1007 9.042 15.493 9.042 14.771C9.042 14.243 9.153 13.743 9.375 13.271C9.597 12.7983 9.90933 12.3713 10.312 11.99C10.7153 11.608 11.1843 11.292 11.719 11.042C12.2537 10.792 12.8403 10.6183 13.479 10.521C13.4377 9.93768 13.3057 9.50368 13.083 9.21901C12.861 8.93434 12.5417 8.79201 12.125 8.79201C11.583 8.79201 11.0517 9.00734 10.531 9.43801C10.0103 9.86801 9.45833 10.458 8.875 11.208C8.20833 12.0833 7.56933 12.7673 6.958 13.26C6.34733 13.7533 5.72233 14 5.083 14C4.43033 14 3.87833 13.7743 3.427 13.323C2.97567 12.8717 2.75 12.257 2.75 11.479C2.75 10.7983 2.91333 10.097 3.24 9.37501C3.566 8.65301 4.03467 7.83368 4.646 6.91701C4.96533 6.45834 5.21167 6.07968 5.385 5.78101C5.559 5.48235 5.646 5.22201 5.646 5.00001C5.646 4.86135 5.618 4.76401 5.562 4.70801C5.50667 4.65268 5.42333 4.62501 5.312 4.62501C5.14533 4.62501 4.958 4.70501 4.75 4.86501C4.542 5.02434 4.31267 5.26368 4.062 5.58301L2.792 4.33301C3.22267 3.76368 3.67033 3.36801 4.135 3.14601C4.60033 2.92334 5.01367 2.81201 5.375 2.81201C5.94433 2.81201 6.434 3.02068 6.844 3.43801C7.25333 3.85401 7.458 4.36068 7.458 4.95801C7.458 5.40268 7.33667 5.87168 7.094 6.36501C6.85067 6.85768 6.493 7.45134 6.021 8.14601C5.535 8.86801 5.167 9.48935 4.917 10.01C4.667 10.5313 4.542 11.0073 4.542 11.438C4.542 11.7013 4.587 11.8957 4.677 12.021C4.767 12.1457 4.89533 12.208 5.062 12.208C5.354 12.208 5.70133 12.0103 6.104 11.615C6.50667 11.219 6.99967 10.653 7.583 9.91701C7.93033 9.48634 8.28467 9.09401 8.646 8.74001C9.00733 8.38534 9.372 8.07968 9.74 7.82301C10.108 7.56634 10.4897 7.36501 10.885 7.21901C11.281 7.07301 11.6943 7.00001 12.125 7.00001C13.0417 7.00001 13.7777 7.31268 14.333 7.93801C14.889 8.56268 15.2087 9.40268 15.292 10.458H17.292V12.25H15.292C15.1947 13.736 14.809 14.9547 14.135 15.906C13.4617 16.8573 12.604 17.333 11.562 17.333ZM11.625 15.521C12.111 15.521 12.5137 15.2327 12.833 14.656C13.1523 14.08 13.3607 13.3127 13.458 12.354C12.708 12.4793 12.0867 12.7747 11.594 13.24C11.1007 13.7053 10.854 14.188 10.854 14.688C10.854 14.9373 10.927 15.1387 11.073 15.292C11.219 15.4447 11.403 15.521 11.625 15.521Z" fill="white"/>
</svg>
