<svg width="20" height="20" viewBox="0 0 20 20" fill="none" xmlns="http://www.w3.org/2000/svg">
<path d="M10 13.979C11.4027 12.8543 12.4687 11.7607 13.198 10.698C13.9273 9.63533 14.292 8.625 14.292 7.667C14.292 6.861 14.146 6.17333 13.854 5.604C13.5627 5.03467 13.2017 4.573 12.771 4.219C12.3403 3.865 11.875 3.608 11.375 3.448C10.875 3.288 10.4167 3.208 10 3.208C9.59733 3.208 9.146 3.288 8.646 3.448C8.146 3.608 7.67733 3.865 7.24 4.219C6.802 4.573 6.43733 5.03467 6.146 5.604C5.854 6.17333 5.708 6.861 5.708 7.667C5.708 8.625 6.07267 9.63533 6.802 10.698C7.53133 11.7607 8.59733 12.8543 10 13.979ZM10 15.667C8.09733 14.2363 6.684 12.8647 5.76 11.552C4.83667 10.2393 4.375 8.94433 4.375 7.667C4.375 6.70833 4.54167 5.87133 4.875 5.156C5.20833 4.44067 5.646 3.84 6.188 3.354C6.72933 2.868 7.33667 2.5 8.01 2.25C8.684 2 9.34733 1.875 10 1.875C10.6667 1.875 11.3333 2 12 2.25C12.6667 2.5 13.2707 2.868 13.812 3.354C14.354 3.84 14.7917 4.44067 15.125 5.156C15.4583 5.87133 15.625 6.70833 15.625 7.667C15.625 8.94433 15.1633 10.2393 14.24 11.552C13.316 12.8647 11.9027 14.2363 10 15.667ZM10 9.042C10.4167 9.042 10.7707 8.896 11.062 8.604C11.354 8.31267 11.5 7.95867 11.5 7.542C11.5 7.12533 11.354 6.771 11.062 6.479C10.7707 6.18767 10.4167 6.042 10 6.042C9.58333 6.042 9.22933 6.18767 8.938 6.479C8.646 6.771 8.5 7.12533 8.5 7.542C8.5 7.95867 8.646 8.31267 8.938 8.604C9.22933 8.896 9.58333 9.042 10 9.042ZM4.375 18.125V16.792H15.625V18.125H4.375Z" fill="white"/>
</svg>
