<svg width="12" height="13" viewBox="0 0 12 13" fill="none" xmlns="http://www.w3.org/2000/svg">
<mask id="mask0_97_2769" style="mask-type:alpha" maskUnits="userSpaceOnUse" x="0" y="0" width="12" height="13">
<rect y="0.5" width="12" height="12" fill="#D9D9D9"/>
</mask>
<g mask="url(#mask0_97_2769)">
<path d="M5.99991 10.8002C5.40831 10.8002 4.85211 10.6876 4.33131 10.4624C3.81051 10.2376 3.35431 9.92923 2.96271 9.53723C2.57071 9.14563 2.26231 8.68943 2.03751 8.16863C1.81231 7.64783 1.69971 7.09163 1.69971 6.50003C1.69971 5.90003 1.81231 5.34163 2.03751 4.82483C2.26231 4.30843 2.57071 3.85443 2.96271 3.46283C3.35431 3.07083 3.81051 2.76243 4.33131 2.53763C4.85211 2.31243 5.40831 2.19983 5.99991 2.19983H6.19971V6.16283C6.27491 6.19603 6.32711 6.24383 6.35631 6.30623C6.38551 6.36863 6.40011 6.43323 6.40011 6.50003C6.40011 6.60843 6.36051 6.70223 6.28131 6.78143C6.20211 6.86063 6.10831 6.90023 5.99991 6.90023C5.89151 6.90023 5.79771 6.86063 5.71851 6.78143C5.63931 6.70223 5.59971 6.60843 5.59971 6.50003C5.59971 6.43323 5.61431 6.37083 5.64351 6.31283C5.67271 6.25443 5.72491 6.20443 5.80011 6.16283V4.41263C5.25811 4.45423 4.80591 4.67703 4.44351 5.08103C4.08111 5.48543 3.89991 5.95843 3.89991 6.50003C3.89991 7.08323 4.10411 7.57903 4.51251 7.98743C4.92091 8.39583 5.41671 8.60003 5.99991 8.60003C6.58311 8.60003 7.07891 8.39583 7.48731 7.98743C7.89571 7.57903 8.09991 7.08323 8.09991 6.50003C8.09991 6.20843 8.04571 5.93543 7.93731 5.68103C7.82891 5.42703 7.67891 5.20423 7.48731 5.01263L7.77471 4.72523C7.99991 4.95843 8.17711 5.22503 8.30631 5.52503C8.43551 5.82503 8.50011 6.15003 8.50011 6.50003C8.50011 7.19163 8.25631 7.78123 7.76871 8.26883C7.28111 8.75643 6.69151 9.00023 5.99991 9.00023C5.30831 9.00023 4.71871 8.75643 4.23111 8.26883C3.74351 7.78123 3.49971 7.19163 3.49971 6.50003C3.49971 5.84163 3.72271 5.27923 4.16871 4.81283C4.61431 4.34603 5.15811 4.08343 5.80011 4.02503V2.60003C4.76651 2.65843 3.89151 3.06043 3.17511 3.80603C2.45831 4.55203 2.09991 5.45003 2.09991 6.50003C2.09991 7.58323 2.47911 8.50403 3.23751 9.26243C3.99591 10.0208 4.91671 10.4 5.99991 10.4C7.08311 10.4 8.00391 10.0208 8.76231 9.26243C9.52071 8.50403 9.89991 7.58323 9.89991 6.50003C9.89991 5.95843 9.79991 5.45223 9.59991 4.98143C9.39991 4.51063 9.12071 4.09603 8.76231 3.73763L9.04971 3.45023C9.44131 3.85023 9.74771 4.30843 9.96891 4.82483C10.1897 5.34163 10.3001 5.90003 10.3001 6.50003C10.3001 7.09163 10.1875 7.64783 9.96231 8.16863C9.73751 8.68943 9.42911 9.14563 9.03711 9.53723C8.64551 9.92923 8.19151 10.2376 7.67511 10.4624C7.15831 10.6876 6.59991 10.8002 5.99991 10.8002Z" fill="white"/>
</g>
</svg>
