<svg width="12" height="13" viewBox="0 0 12 13" fill="none" xmlns="http://www.w3.org/2000/svg">
<mask id="mask0_97_2809" style="mask-type:alpha" maskUnits="userSpaceOnUse" x="0" y="0" width="12" height="13">
<rect y="0.5" width="12" height="12" fill="#D9D9D9"/>
</mask>
<g mask="url(#mask0_97_2809)">
<path d="M5.99995 8.08758C6.51675 8.08758 6.95435 7.90838 7.31275 7.54998C7.67075 7.19158 7.84975 6.75398 7.84975 6.23718C7.84975 5.72078 7.67075 5.28338 7.31275 4.92498C6.95435 4.56658 6.51675 4.38738 5.99995 4.38738C5.48315 4.38738 5.04555 4.56658 4.68715 4.92498C4.32915 5.28338 4.15015 5.72078 4.15015 6.23718C4.15015 6.75398 4.32915 7.19158 4.68715 7.54998C5.04555 7.90838 5.48315 8.08758 5.99995 8.08758ZM5.99995 7.58718C5.62475 7.58718 5.30595 7.45598 5.04355 7.19358C4.78115 6.93118 4.64995 6.61238 4.64995 6.23718C4.64995 5.86238 4.78115 5.54378 5.04355 5.28138C5.30595 5.01858 5.62475 4.88718 5.99995 4.88718C6.37515 4.88718 6.69395 5.01858 6.95635 5.28138C7.21875 5.54378 7.34995 5.86238 7.34995 6.23718C7.34995 6.61238 7.21875 6.93118 6.95635 7.19358C6.69395 7.45598 6.37515 7.58718 5.99995 7.58718ZM5.99995 9.49998C4.90835 9.49998 3.91875 9.20418 3.03115 8.61258C2.14355 8.02098 1.47895 7.22918 1.03735 6.23718C1.47895 5.25398 2.14555 4.46858 3.03715 3.88098C3.92915 3.29378 4.91675 3.00018 5.99995 3.00018C7.08315 3.00018 8.07055 3.29378 8.96215 3.88098C9.85415 4.46858 10.521 5.25398 10.9626 6.23718C10.521 7.22918 9.85635 8.02098 8.96875 8.61258C8.08115 9.20418 7.09155 9.49998 5.99995 9.49998ZM5.99995 8.94978C6.93315 8.94978 7.78935 8.70618 8.56855 8.21898C9.34775 7.73138 9.94155 7.07078 10.35 6.23718C9.94155 5.40398 9.34775 4.74778 8.56855 4.26858C7.78935 3.78938 6.93315 3.54978 5.99995 3.54978C5.06675 3.54978 4.20835 3.78938 3.42475 4.26858C2.64155 4.74778 2.04575 5.40398 1.63735 6.23718C2.04575 7.07078 2.64155 7.73138 3.42475 8.21898C4.20835 8.70618 5.06675 8.94978 5.99995 8.94978Z" fill="white"/>
</g>
</svg>
